<svg width="48" height="48" fill="none" xmlns="http://www.w3.org/2000/svg"><g clip-path="url(#a)"><path d="M24 44.438c-11.287 0-20.438-9.15-20.438-20.438 0-11.287 9.15-20.438 20.438-20.438 11.287 0 20.438 9.15 20.438 20.438.006 11.281-9.134 20.431-20.416 20.438H24zm0-26.77A6.332 6.332 0 1 0 30.332 24 6.339 6.339 0 0 0 24 17.668z" fill="#FFE145"/><path d="M24 48C10.735 48 0 37.266 0 24S10.734 0 24 0s24 10.734 24 24-10.734 24-24 24zm0-46.5C11.564 1.5 1.5 11.563 1.5 24S11.563 46.5 24 46.5 46.5 36.437 46.5 24 36.437 1.5 24 1.5zm0 29.582A7.082 7.082 0 1 1 31.082 24 7.09 7.09 0 0 1 24 31.082zm0-12.663a5.582 5.582 0 1 0 5.582 5.582V24A5.588 5.588 0 0 0 24 18.418v.001z" fill="#B79C10"/><path d="M28.57 12.502v-1.604a.75.75 0 0 0-1.5 0v1.604a.75.75 0 0 0 1.5 0zM35.494 11.197V9.594a.75.75 0 0 0-1.5 0v1.603a.75.75 0 0 0 1.5 0zM36.49 22.165v-1.603a.75.75 0 1 0-1.5 0v1.603a.75.75 0 0 0 1.5 0zM30.502 40.757v-1.603a.75.75 0 0 0-1.5 0v1.603a.75.75 0 1 0 1.5 0zM23.95 35.975v-1.603a.75.75 0 0 0-1.5 0v1.603a.75.75 0 1 0 1.5 0zM17.752 39.406v-1.603a.75.75 0 0 0-1.5 0v1.603a.75.75 0 0 0 1.5 0zM41.547 29.647v-1.603a.75.75 0 1 0-1.5 0v1.603a.75.75 0 0 0 1.5 0zM33.718 32.355v-1.603a.75.75 0 1 0-1.5 0v1.603a.75.75 0 0 0 1.5 0zM14.97 18.763V17.16a.75.75 0 1 0-1.5 0v1.603a.75.75 0 1 0 1.5 0zM18.32 8.501V6.9a.75.75 0 0 0-1.5 0v1.602a.75.75 0 0 0 1.5 0zM7.563 24.5v-1.602a.75.75 0 1 0-1.5 0V24.5a.75.75 0 0 0 1.5 0zM14.543 31.61v-1.602a.75.75 0 0 0-1.5 0v1.603a.75.75 0 1 0 1.5 0z" fill="#B79C10"/></g><defs><clipPath id="a"><path fill="#fff" d="M0 0h48v48H0z"/></clipPath></defs></svg>