<svg width="48" height="48" fill="none" xmlns="http://www.w3.org/2000/svg"><path d="M40.803 36.07v.938a3.709 3.709 0 0 1-3.709 3.709H10.906a3.709 3.709 0 0 1-3.709-3.709v-.937h33.606zM40.756 16.388v1.528H7.246v-1.528a9.105 9.105 0 0 1 9.104-9.105h15.301a9.105 9.105 0 0 1 9.105 9.105z" fill="#FFE145"/><path d="M48 26.243h-.938a3.878 3.878 0 0 0-2.742-6.25v-3.605c0-6.985-5.683-12.668-12.667-12.668H16.35c-6.985 0-12.668 5.684-12.668 12.668v3.605a3.879 3.879 0 0 0-2.744 6.25H0v1.5h1.994v6.265h1.64v3a7.279 7.279 0 0 0 7.272 7.271h26.188a7.279 7.279 0 0 0 7.271-7.27v-3h1.64v-6.266H48v-1.5zM5.182 16.388C5.188 10.223 10.185 5.226 16.35 5.22h15.3c6.165.006 11.162 5.003 11.168 11.168v3.59H5.182v-3.59zm-1.18 5.09h39.997a2.383 2.383 0 0 1 0 4.766H4a2.383 2.383 0 0 1 0-4.765zm33.784 6.266L34.71 29.15l-3.075-1.407h6.15zm5.078 9.265a5.778 5.778 0 0 1-5.77 5.772H10.905a5.778 5.778 0 0 1-5.771-5.772v-3h37.73v3zm1.641-4.5H3.495v-4.766h25.708l5.508 3.313 5.508-3.313h4.286v4.766z" fill="#B79C10"/></svg>