<svg width="48" height="48" fill="none" xmlns="http://www.w3.org/2000/svg"><path d="M18.725 18.167c-3.153 0-6.143.589-8.677 1.688a11.885 11.885 0 0 1-.017 14.8c2.537 1.1 5.534 1.688 8.694 1.688 6.153 0 11.289-4.076 14.669-9.088-3.384-5.018-8.512-9.088-14.67-9.088z" fill="#FFE145"/><path d="M47.25 19.517c-4.178 0-7.972 3.08-10.492 6.368-2.875-4.547-7.309-8.69-12.574-10.41V8.092l-12.489 7.425C5.821 17.12 0 21.258 0 27.255c0 7.42 8.958 12.652 18.724 12.652 7.557 0 14.046-4.971 18.034-11.281 2.523 3.283 6.313 6.367 10.492 6.367H48V19.518h-.75zm-24.568-8.785v4.329c-1.888-.44-3.895-.602-6.745-.32l6.745-4.01zM1.501 27.255c0-3.815 2.933-6.81 6.311-8.613 5.421 4.455 5.421 12.77-.02 17.214C4.407 34.044 1.5 31.05 1.5 27.255zm17.223 11.151c-3.404 0-6.647-.634-9.456-1.841 5.47-4.984 5.477-13.635.02-18.63 2.804-1.2 6.04-1.832 9.436-1.832 7.336 0 13.576 5.177 17.097 11.128l-.015.024.015.023c-3.526 5.969-9.767 11.128-17.096 11.128zM46.5 33.453c-4.42-.46-7.903-4.833-8.89-6.198.985-1.367 4.46-5.74 8.89-6.198v12.396z" fill="#B79C10"/></svg>