<svg width="48" height="48" fill="none" xmlns="http://www.w3.org/2000/svg"><path d="M32.081 21.724V0H20.42v4.717h-5.08v16.98L9 21.687 12.662 48h22.097l3.654-26.262-6.331-.014zM27.002 1.502h3.575V21.69h-3.575V1.502zm-5.079 0h3.575V21.69h-3.575V1.502zm-5.079 4.72h3.575v15.466h-3.575V6.223zM33.45 46.495H13.97l-3.24-23.3 25.954.042-3.234 23.258z" fill="#B79C10"/><path d="m13.108 25.267 2.665 19.159h15.875l2.66-19.12-21.2-.039zM23.71 41.134a5.55 5.55 0 1 1 0-11.099 5.55 5.55 0 0 1 0 11.099z" fill="#FFE145"/><path d="M23.71 41.886a6.302 6.302 0 1 1 6.302-6.302 6.311 6.311 0 0 1-6.302 6.302zm0-11.098a4.797 4.797 0 1 0 4.797 4.796 4.804 4.804 0 0 0-4.797-4.796z" fill="#B79C10"/></svg>