<svg width="48" height="48" fill="none" xmlns="http://www.w3.org/2000/svg"><path d="M24 0 4.559 38.097C9.639 44.803 16.7 48 24 48c7.224 0 14.317-3.138 19.441-9.903L24 0zm15.255 33.195c-5.083 8.424-16.033 11.134-24.457 6.051a17.815 17.815 0 0 1-6.052-6.051L24 3.303l15.255 29.892zM24 46.499a22.475 22.475 0 0 1-17.674-8.562l1.628-3.19c5.94 8.86 17.939 11.228 26.8 5.288a19.32 19.32 0 0 0 5.288-5.288l1.628 3.19A22.475 22.475 0 0 1 24 46.499z" fill="#B79C10"/><path d="M28.222 16.119a2.763 2.763 0 1 1-1.22-2.387L24 7.844 11.127 33.068c5.011 7.109 14.836 8.81 21.945 3.8a15.75 15.75 0 0 0 3.8-3.8l-8.65-16.95zM18.47 28.816a2.765 2.765 0 1 1 0-5.53 2.765 2.765 0 0 1 0 5.53zm10.674 6.612a2.765 2.765 0 1 1 .003 0h-.003z" fill="#FFE145"/><path d="M29.144 36.178a3.516 3.516 0 1 1 0-7.03 3.516 3.516 0 0 1 0 7.03zm0-5.53a2.014 2.014 0 1 0 2.015 2.015 2.016 2.016 0 0 0-2.013-2.02h-.002v.005zM18.47 29.567a3.516 3.516 0 1 1 0-7.032 3.516 3.516 0 0 1 0 7.032zm0-5.53a2.014 2.014 0 1 0 0 4.026 2.014 2.014 0 0 0 0-4.025v-.002zM25.46 19.54a3.515 3.515 0 1 1 3.513-3.518v.003a3.52 3.52 0 0 1-3.513 3.516zm0-5.53a2.014 2.014 0 1 0 2.012 2.018v-.003a2.016 2.016 0 0 0-2.012-2.014z" fill="#B79C10"/></svg>