<svg width="48" height="48" fill="none" xmlns="http://www.w3.org/2000/svg"><g clip-path="url(#a)"><path d="M44.956 44.236c-5.078-1.087-9.038-3.505-12.015-7.054l-3.46-4.125a7.154 7.154 0 0 0-10.968 0l-3.459 4.125c-2.973 3.545-6.93 5.966-12.015 7.054L.937 41.489c.254-.498.729-1.306.729-2.603 0-1.561-.635-2.66-1.666-3.635v-2.651c1.04-.982 1.667-2.082 1.667-3.637 0-1.554-.636-2.66-1.667-3.636v-2.652c1.04-.981 1.667-2.082 1.667-3.636 0-1.554-.636-2.66-1.667-3.636V12.75c1.04-.981 1.667-2.083 1.667-3.636 0-1.271-.455-2.063-.728-2.603l2.104-2.747c5.08 1.088 9.038 3.505 12.015 7.054l3.46 4.125a7.154 7.154 0 0 0 10.968 0l3.459-4.125c2.973-3.545 6.93-5.966 12.015-7.054l2.102 2.748c-.25.492-.729 1.305-.729 2.603 0 1.562.634 2.66 1.667 3.636v2.651c-1.04.982-1.667 2.083-1.667 3.637 0 1.554.635 2.66 1.666 3.635v2.652c-1.04.981-1.667 2.082-1.667 3.636 0 1.554.636 2.66 1.667 3.637v2.65c-1.04.982-1.667 2.083-1.667 3.637 0 1.268.452 2.058.729 2.602l-2.105 2.748zM23.999 28.998a8.634 8.634 0 0 1 6.632 3.093l3.46 4.125a19.34 19.34 0 0 0 10.252 6.346l.963-1.258a6.383 6.383 0 0 1-.476-2.422 6.228 6.228 0 0 1 1.67-4.267v-1.384a6.302 6.302 0 0 1 0-8.54v-1.383a6.302 6.302 0 0 1 0-8.54v-1.383a6.227 6.227 0 0 1-1.668-4.27c0-.831.162-1.654.477-2.423l-.966-1.254a19.338 19.338 0 0 0-10.255 6.348l-3.46 4.125a8.654 8.654 0 0 1-13.262 0l-3.46-4.125a19.34 19.34 0 0 0-10.25-6.348l-.965 1.254c.314.77.476 1.592.476 2.423a6.228 6.228 0 0 1-1.667 4.27v1.384a6.228 6.228 0 0 1 1.667 4.27 6.227 6.227 0 0 1-1.667 4.27v1.383a6.227 6.227 0 0 1 1.667 4.27 6.228 6.228 0 0 1-1.667 4.27v1.383a6.228 6.228 0 0 1 1.667 4.27c0 .831-.161 1.654-.476 2.423l.965 1.254a19.34 19.34 0 0 0 10.255-6.347l3.46-4.125A8.634 8.634 0 0 1 24 28.998z" fill="#B79C10"/><path d="M42.837 39.951a17.268 17.268 0 0 1-7.166-5.062l-3.46-4.125c-3.803-4.535-10.562-5.13-15.097-1.327-.48.403-.924.847-1.327 1.327l-3.46 4.125a17.27 17.27 0 0 1-7.165 5.062 8.375 8.375 0 0 0-1.557-6.028 8.35 8.35 0 0 0 1.624-4.962 8.349 8.349 0 0 0-1.624-4.96 8.35 8.35 0 0 0 1.624-4.963 8.35 8.35 0 0 0-1.624-4.962 8.375 8.375 0 0 0 1.557-6.028 17.27 17.27 0 0 1 7.166 5.062l3.46 4.125c3.802 4.535 10.56 5.13 15.096 1.327.48-.403.924-.847 1.327-1.327l3.46-4.125a17.269 17.269 0 0 1 7.165-5.062 8.375 8.375 0 0 0 1.557 6.028 8.393 8.393 0 0 0 0 9.923 8.393 8.393 0 0 0 0 9.923 8.375 8.375 0 0 0-1.556 6.03z" fill="#FFE145"/><path d="M27.44 23.995a8.193 8.193 0 0 0 2.84-2.177l3.262-3.89-1.147-.96-3.261 3.89a6.72 6.72 0 0 1-10.27 0l-3.26-3.89-1.15.965 3.264 3.885a8.196 8.196 0 0 0 2.843 2.177 8.193 8.193 0 0 0-2.843 2.177l-3.261 3.89 1.149.963 3.261-3.89a6.72 6.72 0 0 1 10.27 0l3.262 3.89 1.15-.963-3.268-3.89a8.194 8.194 0 0 0-2.84-2.177z" fill="#B79C10"/></g><defs><clipPath id="a"><path fill="#fff" d="M0 0h48v48H0z"/></clipPath></defs></svg>