<svg width="48" height="48" fill="none" xmlns="http://www.w3.org/2000/svg"><path d="M24 11.896C22.906 10 21.89 7.67 21.89 5.672a2.11 2.11 0 0 1 4.22 0c0 1.987-1.025 4.33-2.11 6.224zM12.792 24.99a2.11 2.11 0 0 1 0-4.219c1.988 0 4.33 1.026 6.224 2.113-1.894 1.09-4.225 2.106-6.224 2.106zM35.208 24.99c-2 0-4.333-1.018-6.23-2.11 1.896-1.09 4.23-2.109 6.23-2.109a2.11 2.11 0 0 1 0 4.219zM12.792 38.913a2.11 2.11 0 0 1 0-4.219c1.988 0 4.33 1.026 6.224 2.113-1.894 1.09-4.225 2.106-6.224 2.106zM35.208 38.913c-2 0-4.333-1.018-6.23-2.11 1.896-1.09 4.23-2.109 6.23-2.109a2.11 2.11 0 0 1 0 4.219z" fill="#FFE145"/><path d="M35.208 31.132c-2.328 0-5.007.861-7.963 2.56a30.827 30.827 0 0 0-2.495 1.603V24.389a29.767 29.767 0 0 0 2.495 1.602c2.955 1.7 5.634 2.561 7.963 2.561a5.672 5.672 0 0 0 0-11.343c-2.328 0-5.007.861-7.963 2.561a29.48 29.48 0 0 0-2.495 1.605v-4.23a29.926 29.926 0 0 0 2.362-3.51c1.7-2.956 2.56-5.634 2.56-7.963a5.672 5.672 0 0 0-11.343 0c0 2.328.862 5.007 2.561 7.963a29.923 29.923 0 0 0 2.36 3.51v4.23a29.744 29.744 0 0 0-2.495-1.602c-2.955-1.7-5.634-2.561-7.963-2.561a5.672 5.672 0 0 0 0 11.343c2.328 0 5.007-.861 7.963-2.56a30.833 30.833 0 0 0 2.495-1.603v10.903a29.744 29.744 0 0 0-2.495-1.602c-2.955-1.7-5.634-2.561-7.963-2.561a5.672 5.672 0 0 0 0 11.343c2.328 0 5.007-.861 7.963-2.56a30.833 30.833 0 0 0 2.495-1.603V48h1.5v-9.688a29.765 29.765 0 0 0 2.495 1.602c2.955 1.7 5.634 2.561 7.963 2.561a5.672 5.672 0 0 0 0-11.343zm0-12.424a4.172 4.172 0 1 1 .005 8.344h-.005c-3.897 0-8.263-2.907-9.979-4.172 1.716-1.265 6.084-4.172 9.979-4.172zM19.828 5.672a4.172 4.172 0 1 1 8.344 0c0 3.897-2.906 8.264-4.173 9.98-1.265-1.714-4.17-6.076-4.17-9.98zm-7.031 21.38a4.172 4.172 0 1 1 0-8.344c3.897 0 8.264 2.906 9.98 4.173-1.719 1.265-6.081 4.171-9.985 4.171h.005zm0 13.923a4.172 4.172 0 1 1 0-8.343c3.897 0 8.264 2.906 9.98 4.172-1.719 1.265-6.081 4.171-9.985 4.171h.005zm22.416 0c-3.898 0-8.264-2.906-9.98-4.172 1.716-1.265 6.083-4.171 9.98-4.171a4.172 4.172 0 1 1 0 8.343z" fill="#B79C10"/></svg>