<svg width="31" height="63" fill="none" xmlns="http://www.w3.org/2000/svg"><path d="M.243 2.386a.5.5 0 0 0-.172.686l2.315 3.859a.5.5 0 0 0 .858-.514l-2.058-3.43L4.616.928A.5.5 0 0 0 4.102.07L.243 2.386zm25.718 59.972a38.61 38.61 0 0 0 .456.204l.002-.003a58.677 58.677 0 0 0 3.328-11.648c1.207-6.948 1.517-16.202-2.118-25.348l-.465.185-.465.185c3.544 8.914 3.252 17.965 2.063 24.807a57.664 57.664 0 0 1-2.078 8.279 44.653 44.653 0 0 1-.842 2.322 27.186 27.186 0 0 1-.315.762l-.017.038a.417.417 0 0 0-.004.009v.002l.455.206zm1.203-36.61.465-.185C23.986 16.4 17.225 10.592 11.399 7.081a47.772 47.772 0 0 0-7.564-3.69c-.98-.373-1.78-.638-2.336-.81a24.04 24.04 0 0 0-.872-.25H.623V2.33L.5 2.815.38 3.3h.002a1.87 1.87 0 0 1 .048.013l.158.043c.14.039.348.099.617.181.538.166 1.317.423 2.275.789a46.77 46.77 0 0 1 7.403 3.611c5.71 3.441 12.282 9.1 15.817 17.996l.465-.185z" fill="#313030"/></svg>