<svg width="149" height="69" fill="none" xmlns="http://www.w3.org/2000/svg"><path d="M3.841 24.189 0 12.579l2.56-.968a4.533 4.533 0 0 1 2.081 0c.64.161 1.12.483 1.44 1.128.32.323.48.645.64 1.13.32.806.32 1.45 0 2.096-.16.161-.32.483-.48.645.48 0 .8.161 1.281.483.32.323.48.646.8.968.16.161.16.484.32.806.32.807.32 1.452.16 1.935 0 .484-.32.968-.64 1.29-.16.484-.64.807-1.12.968L3.84 24.19zm-.32-7.58.8-.322c.48-.161.8-.645.8-1.129 0-.16 0-.483-.16-.806-.32-.322-.48-.645-.8-.806a1.013 1.013 0 0 0-.96 0l-.8.161 1.12 2.903zm1.6 5.161.8-.322c.64-.162.96-.646.96-1.29 0-.162 0-.484-.16-.807-.16-.645-.48-1.129-.8-1.29-.32-.161-.64-.161-1.12 0l-.8.323 1.12 3.386zM18.885 19.674c-.8.161-1.44.161-2.24-.323-.64-.322-1.12-.967-1.28-1.774l-2.402-9.03 1.761-.484 2.4 9.03c0 .323.16.484.48.646.32.16.48.16.801.16.32 0 .48-.16.64-.483.16-.322.16-.484.16-.806l-2.4-9.03 1.76-.485 2.4 9.192c.16.807.16 1.452-.32 2.258-.48.484-1.12.967-1.76 1.129zM28.488 4.838c.96-.161 1.76 0 2.4.322.48.323.8.968.96 1.935l.32 1.774c.16.807 0 1.613-.48 2.42l2.401 4.998-1.92.323-1.92-4.354h-.16l-.961.161.96 4.515-1.76.323-2.401-11.933 2.56-.484zm1.76 2.58c-.16-.645-.48-.968-1.28-.806l-1.12.16.8 3.871 1.12-.161c.32 0 .48-.161.64-.484.16-.322.16-.484.16-.806l-.32-1.774zM43.212 14.836c-.8.161-1.44 0-2.08-.484-.641-.484-.961-1.129-1.121-1.935l-.96-6.612c-.16-.806 0-1.451.48-2.096s1.12-.968 1.92-1.129c.8-.161 1.44 0 2.08.484.64.484.961 1.129 1.121 1.935l.16 1.29-1.92.323-.16-1.452c0-.322-.16-.484-.48-.645-.16-.161-.48-.322-.8-.161-.32 0-.481.161-.641.484-.16.161-.16.484-.16.806l.96 6.45c0 .323.16.484.48.646.16.16.48.322.8.16.32 0 .48-.16.64-.483.16-.161.32-.484.16-.806l-.32-2.42-.96.162-.32-1.774 2.881-.484.64 4.193c.16.806 0 1.451-.48 2.096-.48.968-1.12 1.29-1.92 1.452zM52.494 13.546l-.96-12.256 5.121-.484.16 1.935-3.36.323.32 3.225 2.4-.161.16 1.774-2.4.322.32 3.225 3.36-.322.16 1.935-5.28.484zM66.418.323c.96 0 1.76.16 2.24.806.48.484.8 1.129.8 2.096V5c0 .806-.32 1.613-.96 2.258l1.6 5.321h-1.92l-1.28-4.515h-1.28l.16 4.515h-1.76L63.537.323h2.88zm1.28 2.902c0-.645-.32-.967-1.12-.967h-1.12l.16 3.87h1.12c.32 0 .48-.161.8-.323.16-.16.32-.483.32-.806l-.16-1.774zM95.066 10.482c0 .806-.32 1.451-.96 1.935-.64.484-1.281.806-2.081.645l-2.881-.161.96-12.095 2.88.162c.801 0 1.441.322 1.922.967.48.645.8 1.29.64 2.096l-.48 6.45zm-4.002.645 1.12.161c.32 0 .48 0 .8-.322.161-.162.321-.484.321-.645l.48-6.29c0-.322 0-.483-.32-.806-.16-.161-.48-.322-.64-.322l-1.12-.162-.64 8.386zM102.748 0l1.76.161-.64 2.742-1.12-.162V0zM113.951 15.965l-4.962-.807 2.081-12.094 1.76.322-1.76 10.16 3.201.645-.32 1.774zM122.642 5.176l-2.543 11.985 1.722.37 2.543-11.984-1.722-.371zM131.075 19.996c-.8-.161-1.44-.645-1.76-1.29-.32-.645-.48-1.451-.32-2.258l1.76-6.45c.16-.806.64-1.451 1.28-1.774.641-.322 1.441-.484 2.241-.322.8.161 1.44.645 1.761 1.29.32.645.48 1.451.32 2.258l-.32 1.29-1.761-.484.32-1.452c0-.322 0-.483-.16-.806-.16-.161-.32-.322-.64-.322s-.48 0-.8.16c-.32.162-.48.323-.48.646l-1.761 6.45c0 .323 0 .484.16.807.16.322.32.483.64.483s.48 0 .801-.16c.32-.162.48-.323.48-.646l.48-1.613 1.76.484-.48 1.613c-.16.806-.64 1.451-1.28 1.774-.64.322-1.441.483-2.241.322zM140.198 22.415l3.841-11.45L149 12.579l-.64 1.774-3.201-1.129-.96 3.225 2.24.807-.64 1.774-2.24-.807-1.121 3.064 3.201 1.129-.64 1.774-4.801-1.774zM22.886 54.183c0 .484-.32.645-.64.645s-.64-.322-.64-.645c0-.322.32-.645.64-.645.32-.161.64.162.64.645zM27.047 54.99l-.32.645h-.96l1.6-3.87h.96l1.601 3.87h-.96l-.32-.645h-1.6zm.8-2.258-.64 1.451h1.12l-.48-1.451zM36.33 55.635v-2.42l-.96 2.097h-.64l-.96-2.096v2.419h-.801v-3.87h.96l1.12 2.257.96-2.258h1.121v3.87h-.8zM41.451 52.57v.807h1.92v.645h-1.92v.806h2.08v.807h-3.04v-3.87h3.04v.806h-2.08zM48.493 54.506h-.8v1.129h-.96v-3.87h1.76c.96 0 1.6.483 1.6 1.29 0 .645-.32.967-.64 1.29l.8 1.29h-1.12l-.64-1.13zm0-.645c.48 0 .64-.161.64-.645 0-.323-.32-.645-.64-.645h-.8v1.29h.8zM54.415 51.764h-.96v3.87h.96v-3.87zM60.976 52.41l-.64.645c-.32-.323-.64-.484-.96-.484-.64 0-1.12.483-1.12 1.129 0 .645.48 1.128 1.12 1.128.32 0 .64-.16.96-.483l.64.645c-.48.483-.96.645-1.6.645-1.12 0-2.08-.807-2.08-1.935 0-1.13.8-1.936 2.08-1.936.64 0 1.28.323 1.6.645zM64.978 54.99l-.32.645h-.96l1.6-3.87h.96l1.6 3.87h-.96l-.32-.645h-1.6zm.8-2.258-.48 1.451h1.12l-.64-1.451zM73.62 55.635l-1.76-2.42v2.42h-.961v-3.87h.8l1.76 2.418v-2.419h.961v3.87h-.8zM82.582 52.57v.807h1.76v.806h-1.76v1.452h-.96v-3.87h2.88v.806h-1.92zM91.544 53.7c0 1.128-.96 1.935-2.08 1.935s-2.08-.807-2.08-1.935c0-1.13.96-1.936 2.08-1.936s2.08.807 2.08 1.935zm-3.2 0c0 .645.48 1.128 1.12 1.128.64 0 1.12-.483 1.12-1.129 0-.645-.48-1.128-1.12-1.128-.64 0-1.12.483-1.12 1.129zM98.426 53.7c0 1.128-.96 1.935-2.08 1.935s-2.08-.807-2.08-1.935c0-1.13.96-1.936 2.08-1.936s2.08.807 2.08 1.935zm-3.2 0c0 .645.48 1.128 1.12 1.128.64 0 1.12-.483 1.12-1.129 0-.645-.48-1.128-1.12-1.128-.64 0-1.12.483-1.12 1.129zM103.228 51.764c1.28 0 2.08.807 2.08 1.935 0 1.13-.8 1.936-2.08 1.936h-1.601v-3.87h1.601zm-.64 3.064h.64c.64 0 .96-.483.96-1.129 0-.645-.48-1.128-1.12-1.128h-.64v2.257h.16zM109.309 51.764h-.96v3.87h.96v-3.87zM115.391 55.635l-1.76-2.42v2.42h-.961v-3.87h.961l1.76 2.418v-2.419h.8v3.87h-.8zM122.913 53.7v1.45a3.07 3.07 0 0 1-1.6.485c-1.121 0-2.081-.807-2.081-1.935 0-1.13.96-1.936 2.081-1.936.64 0 1.12.162 1.6.645l-.48.645c-.32-.322-.64-.483-.96-.483-.641 0-1.121.483-1.121 1.129 0 .645.48 1.128 1.121 1.128.16 0 .48 0 .64-.16V53.7h.8zM127.394 54.183c0 .484-.32.645-.64.645s-.64-.322-.64-.645c0-.322.32-.645.64-.645.48-.161.64.162.64.645zM35.05 36.445v-3.87h1.76v.483h-1.12v1.13h.8v.644h-.8v.968h1.12v.645h-1.76zM41.291 35.477c0 .323 0 .484-.16.645-.16.161-.16.161-.48.323h-.32c-.16 0-.48 0-.64-.162l-.32-.322c0-.161-.16-.323-.16-.484h.48c0 .161.16.323.16.484l.16.161c.16 0 .16 0 .32-.161v-.323c0-.16 0-.322-.16-.483l-.48-.484-.48-.484c-.16-.161-.16-.322-.16-.484 0-.322.16-.645.32-.806.16-.161.32-.161.48-.161.16 0 .32 0 .48.161.16 0 .16.161.32.322 0 .162.16.323.16.484l-.48.161c0-.16 0-.322-.16-.322l-.16-.161c-.16 0-.16 0-.32.161v.322c0 .162 0 .323.16.484l.32.323c.16.161.16.161.32.161.16.161.32.323.32.484 0 0 0 .161.16.161.16-.161.32-.161.32 0zM44.332 33.058h-.64v-.483h1.92v.483h-.64v3.387h-.64v-3.387zM48.653 35.8h-.64v.645h.64V35.8zM100.027 33.703c0-.322.16-.645.32-.806.16-.161.32-.322.64-.322s.48.16.64.322c.16.161.32.484.32.645 0 .322 0 .484-.16.806 0 .162-.16.323-.48.645 0 .162-.16.162-.32.484l-.16.161c0 .162-.16.162-.16.323h1.12v.645h-1.92v-.484s0-.161.16-.161l.16-.161.16-.162c.16-.16.16-.322.48-.645.16-.322.32-.483.48-.645 0-.16.16-.322.16-.483 0-.162 0-.162-.16-.323 0-.161-.16-.161-.32-.161s-.32.161-.32.322v.323l-.64-.323zM106.269 35.638c0 .323-.16.484-.321.645-.16.162-.32.323-.64.323s-.48-.161-.64-.323c-.16-.16-.32-.322-.32-.645v-2.096c0-.323.16-.484.32-.645.16-.161.32-.322.64-.322s.48.16.64.322c.161.161.321.484.321.645v2.096zm-.641-2.257c0-.162 0-.162-.16-.162l-.16-.16c-.16 0-.16 0-.16.16l-.16.162v2.096c0 .161 0 .161.16.161l.16.162c.16 0 .16 0 .16-.162l.16-.16V33.38zM109.149 36.445V33.38h-.48v-.484c.16 0 .32 0 .48-.161l.32-.323h.481v3.87h-.801v.162zM113.31 33.542v-.323l-.16-.16c-.16 0-.16 0-.16.16v1.129c.16-.16.32-.16.481-.16.32 0 .48.16.64.322.16.16.16.322.16.645v.645c0 .322-.16.483-.32.645-.16.16-.32.322-.641.322-.32 0-.48-.161-.64-.322-.16-.162-.32-.323-.32-.645v-2.097c0-.161 0-.322.16-.484.16-.16.16-.322.32-.322h.32c.321 0 .481.161.641.322.16.162.32.323.32.645v.162h-.801v-.484zm-.64 1.935v.161l.16.162c.16 0 .16 0 .16-.162v-.806c0-.161 0-.161-.16-.322h-.16c-.16 0-.16 0-.16.16v.807h.16zM90.584 31.123c-.48 0-.64-.161-.96-.484-.48-.322-1.12-.967-2.24-.967s-1.761.484-2.241.967c-.32.323-.48.484-.96.484s-.64-.161-.96-.484c-.48-.322-1.12-.967-2.241-.967-1.12 0-1.76.484-2.24.967-.32.323-.48.484-.961.484-.48 0-.64-.161-.96-.484-.48-.322-1.12-.967-2.24-.967-1.121 0-1.761.484-2.242.967-.32.323-.48.484-.96.484s-.64-.161-.96-.484c-.48-.322-1.12-.967-2.24-.967-1.121 0-1.761.484-2.241.967-.32.323-.48.484-.96.484s-.64-.161-.96-.484c-.48-.322-1.121-.967-2.241-.967s-1.76.484-2.241.967c-.32.323-.48.484-.96.484-.8 0-1.44-.645-1.44-1.451 0-1.935 6.881-7.418 17.604-7.418 10.723 0 17.605 5.483 17.605 7.418 0 .484.48.967.96.967s.96-.483.96-.967c0-3.71-8.802-9.353-19.525-9.353-10.723 0-19.525 5.644-19.525 9.353 0 1.935 1.6 3.547 3.52 3.547 1.121 0 1.761-.483 2.241-.967.32-.323.48-.484.96-.484s.64.161.96.484c.481.322 1.121.967 2.242.967 1.12 0 1.76-.483 2.24-.967.32-.323.48-.484.96-.484s.64.161.96.484c.48.322 1.12.967 2.241.967 1.12 0 1.76-.483 2.24-.967.32-.323.481-.484.961-.484s.64.161.96.484c.48.322 1.12.967 2.241.967 1.12 0 1.76-.483 2.24-.967.32-.323.48-.484.96-.484.481 0 .641.161.961.484.48.322 1.12.967 2.24.967 1.121 0 1.761-.483 2.241-.967.32-.323.48-.484.96-.484s.64.161.96.484c.48.322 1.121.967 2.241.967.96 0 1.44.484 1.44.645 0 .162-.16.162-.32.323-.32.161-.8.323-1.12.323H58.416c-1.92 0-3.521 1.612-3.521 3.547v.968c0 1.935 1.6 3.548 3.52 3.548h32.17c1.92 0 3.52-1.613 3.52-3.548 0-.484-.48-.968-.96-.968s-.96.484-.96.968a1.44 1.44 0 0 1-1.44 1.451h-32.33c-.8 0-1.44-.645-1.44-1.451v-.968c0-.806.64-1.451 1.44-1.451h32.17c.8 0 1.6-.161 2.24-.645.64-.484 1.12-1.129 1.12-1.935v-.322c0-1.452-1.44-2.58-3.36-2.58zm-24.966-5.16-.8.322c-.16.162-.32.323-.32.484v.484c.16.161.16.322.48.322h.16c.32 0 .64-.16.64-.483l.16-.807v-.322h-.32zm9.282 0-.8.322c-.16.162-.32.323-.32.484-.16.323.16.806.48.806h.16c.32 0 .64-.16.64-.483l.16-.807v-.322h-.32zm9.283 0-.8.322c-.16.162-.32.323-.32.484-.16.323.16.806.48.806h.16c.32 0 .64-.16.64-.483l.16-.807v-.322h-.32zm-13.924-1.29-.8.322c-.16 0-.32.323-.32.484-.16.323.16.806.48.806h.16c.32 0 .64-.16.64-.483l.16-.807c0-.161 0-.161-.16-.322h-.16zm9.282 0-.8.322c-.16.162-.32.323-.32.484v.484c.16.161.16.322.48.322h.16c.32 0 .64-.16.64-.483l.16-.807v-.322h-.32zM78.741 63.536c0-.16-.16-.322-.32-.322l-2.56-.161-.96-2.42a.452.452 0 0 0-.801 0l-.96 2.42-2.561.16c-.16 0-.32.162-.32.323 0 .162 0 .323.16.484l2.08 1.613-.64 2.58c0 .161 0 .323.16.484.16.161.32.161.48 0l2.241-1.452 2.24 1.452h.16c.16 0 .48-.162.48-.484v-.161l-.64-2.42 2.081-1.612c-.32 0-.16-.322-.32-.484zM90.744 64.988h-8.322c-.16 0-.48-.162-.48-.323s.16-.484.48-.484h8.322c.16 0 .48.162.48.484 0 .323-.16.323-.48.323zM89.464 67.084h-8.322c-.16 0-.48-.161-.48-.484 0-.16.16-.483.48-.483h8.322c.16 0 .48.16.48.483-.16.323-.32.484-.48.484zM66.578 64.988h-8.322c-.16 0-.48-.162-.48-.323s.16-.484.48-.484h8.322c.16 0 .48.162.48.484 0 .323-.32.323-.48.323zM67.858 67.084h-8.322c-.16 0-.48-.161-.48-.484 0-.16.16-.483.48-.483h8.322c.16 0 .48.16.48.483 0 .323-.16.484-.48.484z" fill="#313030"/></svg>