<svg width="22" height="22" fill="none" xmlns="http://www.w3.org/2000/svg"><path d="M10.824 0c2.939 0 3.309.013 4.469.06 1.155.052 1.942.236 2.629.503.709.279 1.315.649 1.917 1.25a5.277 5.277 0 0 1 1.25 1.916c.266.692.451 1.479.503 2.63.051 1.156.064 1.522.064 4.465 0 2.943-.013 3.308-.064 4.464-.052 1.156-.237 1.942-.503 2.63a5.371 5.371 0 0 1-1.25 1.916 5.28 5.28 0 0 1-1.917 1.251c-.692.266-1.478.451-2.629.503-1.156.052-1.521.064-4.465.064-2.943 0-3.309-.012-4.465-.064-1.155-.052-1.941-.237-2.629-.503a5.374 5.374 0 0 1-1.917-1.251 5.276 5.276 0 0 1-1.25-1.916c-.266-.692-.451-1.478-.503-2.63C.013 14.132 0 13.763 0 10.824c0-2.939.013-3.31.064-4.46.052-1.156.237-1.942.503-2.63a5.37 5.37 0 0 1 1.25-1.917A5.277 5.277 0 0 1 3.734.567C4.422.301 5.208.116 6.36.064 7.515.013 7.885 0 10.824 0zm0 1.951c-2.892 0-3.232.009-4.375.065-1.057.047-1.628.227-2.01.373-.508.193-.869.43-1.247.808a3.36 3.36 0 0 0-.807 1.246c-.15.383-.327.954-.374 2.011-.052 1.143-.065 1.482-.065 4.374 0 2.892.013 3.231.065 4.374.047 1.057.228 1.629.374 2.01.193.508.43.869.807 1.247.378.378.74.61 1.246.809.383.15.954.325 2.011.373 1.143.051 1.483.064 4.375.064s3.231-.013 4.374-.064c1.057-.048 1.629-.227 2.011-.373a3.31 3.31 0 0 0 1.246-.809c.378-.378.61-.74.808-1.246.15-.383.326-.954.374-2.01.051-1.144.064-1.483.064-4.375s-.013-3.231-.064-4.374c-.047-1.057-.228-1.628-.374-2.01a3.307 3.307 0 0 0-.808-1.247 3.361 3.361 0 0 0-1.246-.808c-.382-.15-.954-.326-2.01-.373-1.144-.052-1.483-.065-4.375-.065zm0 3.313a5.564 5.564 0 0 1 5.56 5.56 5.563 5.563 0 0 1-5.56 5.56 5.561 5.561 0 0 1 0-11.12zm0 1.95a3.609 3.609 0 1 0 0 7.219 3.609 3.609 0 0 0 0-7.218zm5.778-3.467a1.298 1.298 0 1 1 0 2.596 1.298 1.298 0 0 1 0-2.596z" fill="#D4D7E6"/></svg>