<svg width="185" height="24" fill="none" xmlns="http://www.w3.org/2000/svg"><path fill="#FFE145" d="M.024 11h87v13h-87z"/><path d="M15.192 5.608 7.44 24H3.024l2.424-5.456L0 5.608h4.584l3.096 8.376 3.072-8.376h4.44zM30.5 12.088c0 .384-.024.784-.072 1.2H21.14c.064.832.328 1.472.792 1.92.48.432 1.064.648 1.752.648 1.024 0 1.736-.432 2.136-1.296h4.368a5.916 5.916 0 0 1-1.224 2.376 5.958 5.958 0 0 1-2.184 1.656c-.88.4-1.864.6-2.952.6-1.312 0-2.48-.28-3.504-.84a5.975 5.975 0 0 1-2.4-2.4c-.576-1.04-.864-2.256-.864-3.648 0-1.392.28-2.608.84-3.648a5.975 5.975 0 0 1 2.4-2.4c1.024-.56 2.2-.84 3.528-.84 1.296 0 2.448.272 3.456.816a5.781 5.781 0 0 1 2.352 2.328c.576 1.008.864 2.184.864 3.528zm-4.2-1.08c0-.704-.24-1.264-.72-1.68-.48-.416-1.08-.624-1.8-.624-.688 0-1.272.2-1.752.6-.464.4-.752.968-.864 1.704H26.3zM37.97 0v19h-4.105V0h4.104zM46.247 0v19h-4.104V0h4.104zM56.517 19.192c-1.312 0-2.496-.28-3.552-.84a6.253 6.253 0 0 1-2.472-2.4c-.592-1.04-.888-2.256-.888-3.648 0-1.376.304-2.584.912-3.624a6.166 6.166 0 0 1 2.496-2.424c1.056-.56 2.24-.84 3.552-.84 1.312 0 2.496.28 3.552.84a6.166 6.166 0 0 1 2.496 2.424c.608 1.04.912 2.248.912 3.624s-.312 2.592-.936 3.648a6.172 6.172 0 0 1-2.52 2.4c-1.056.56-2.24.84-3.552.84zm0-3.552c.784 0 1.448-.288 1.992-.864.56-.576.84-1.4.84-2.472s-.272-1.896-.816-2.472a2.561 2.561 0 0 0-1.968-.864c-.8 0-1.464.288-1.992.864-.528.56-.792 1.384-.792 2.472 0 1.072.256 1.896.768 2.472a2.561 2.561 0 0 0 1.968.864zM86.127 5.608 82.503 19h-4.536l-2.112-8.688L73.67 19h-4.512L65.51 5.608h4.104l1.896 9.576 2.256-9.576h4.344l2.28 9.528 1.872-9.528h3.864zM96.932 19l-4.512-5.664V19h-3.36V0h3.36v11.344l4.464-5.64h4.368l-5.856 6.672L101.3 19h-4.368zM105.96 3.968c-.592 0-1.088-.184-1.488-.552A1.925 1.925 0 0 1 103.896 2c0-.56.192-1.024.576-1.392.4-.384.896-.576 1.488-.576s1.08.192 1.464.576c.4.368.6.832.6 1.392 0 .56-.2 1.032-.6 1.416-.384.368-.872.552-1.464.552zm1.675 1.736V19h-3.36V5.704h3.36zM116.067 8.464v6.432c0 .448.104.776.312.984.224.192.592.288 1.104.288h1.56V19h-2.112c-2.832 0-4.248-1.376-4.248-4.128V8.464h-1.584v-2.76h1.584L112.64 0h3.384l.043 5.704h2.976v2.76h-2.976zM121.796 12.352c0-1.376.28-2.576.84-3.6.56-1.04 1.336-1.84 2.328-2.4.992-.576 2.128-.864 3.408-.864 1.648 0 3.008.416 4.08 1.248 1.088.816 1.816 1.968 2.184 3.456h-3.624c-.192-.576-.52-1.024-.984-1.344-.448-.336-1.008-.504-1.68-.504-.96 0-1.72.352-2.28 1.056-.56.688-.84 1.672-.84 2.952 0 1.264.28 2.248.84 2.952.56.688 1.32 1.032 2.28 1.032 1.36 0 2.248-.608 2.664-1.824h3.624c-.368 1.44-1.096 2.584-2.184 3.432-1.088.848-2.448 1.272-4.08 1.272-1.28 0-2.416-.28-3.408-.84a6.108 6.108 0 0 1-2.328-2.4c-.56-1.04-.84-2.248-.84-3.624zM145.785 5.512c1.008 0 1.904.224 2.688.672.784.432 1.392 1.08 1.824 1.944.448.848.672 1.872.672 3.072V19h-3.36v-7.344c0-1.056-.264-1.864-.792-2.424-.528-.576-1.248-.864-2.16-.864-.928 0-1.664.288-2.208.864-.528.56-.792 1.368-.792 2.424V19h-3.36V0h3.36v7.36c.432-.576 1.008-1.024 1.728-1.344.72-.336 1.52-.504 2.4-.504zM167.724 12.064c0 .48-.032.912-.096 1.296h-9.72c.08.96.416 1.712 1.008 2.256.592.544 1.32.816 2.184.816 1.248 0 2.136-.536 2.664-1.608h3.624c-.384 1.28-1.12 2.336-2.208 3.168-1.088.816-2.424 1.224-4.008 1.224-1.28 0-2.432-.28-3.456-.84a6.182 6.182 0 0 1-2.376-2.424c-.56-1.04-.84-2.24-.84-3.6 0-1.376.28-2.584.84-3.624a5.861 5.861 0 0 1 2.352-2.4c1.008-.56 2.168-.84 3.48-.84 1.264 0 2.392.272 3.384.816a5.63 5.63 0 0 1 2.328 2.328c.56.992.84 2.136.84 3.432zm-3.48-.96c-.016-.864-.328-1.552-.936-2.064-.608-.528-1.352-.792-2.232-.792-.832 0-1.536.256-2.112.768-.56.496-.904 1.192-1.032 2.088h6.312zM178.745 5.512c1.584 0 2.864.504 3.84 1.512.976.992 1.464 2.384 1.464 4.176V19h-3.36v-7.344c0-1.056-.264-1.864-.792-2.424-.528-.576-1.248-.864-2.16-.864-.928 0-1.664.288-2.208.864-.528.56-.792 1.368-.792 2.424V19h-3.36V5.704h3.36V7.36a4.555 4.555 0 0 1 1.704-1.344 5.28 5.28 0 0 1 2.304-.504z" fill="#3F4255"/></svg>