<svg width="48" height="48" fill="none" xmlns="http://www.w3.org/2000/svg"><path d="M47.8 20.2v2c0 .1-.1.1-.1.2-.2 2-.9 3.9-2 5.6-.8 1.3-1.9 2.3-2.9 3.4-5 5-10.1 9.9-15.1 14.9-.4.4-.9.8-1.4 1.2h-.5c-.2-.2-.5-.3-.7-.5-5.7-5.6-11.4-11.2-17-16.8-1.7-1.7-2.9-3.8-3.4-6.1-.2-.7-.2-1.3-.3-2v-2c0-.3.1-.6.1-.9.9-5.9 6.1-10.6 12-10.9 2.6-.1 5 .4 7.3 1.6.143.143 2.631.1 4.3.1.1 0 .2-.1.3-.2 2.8-1.5 5.9-2.1 9-1.4 5.2 1.2 8.7 4.3 10.1 9.6.1.7.2 1.5.3 2.2z" fill="#FFE145"/><path fill-rule="evenodd" clip-rule="evenodd" d="m23.9 21.9-.9 4.2h2.9l-.8-4.1-1.2-.1z" fill="#fff"/><path fill-rule="evenodd" clip-rule="evenodd" d="M25.6 9.7c.1-.1.2-.1.3-.2 1.8-1 3.7-1.6 5.8-1.7 3.3-.2 6.3.8 8.9 2.9 2.7 2.2 4.3 5.1 4.8 8.5.5 3.9-.6 7.3-3.1 10.3-1.2 1.4-2.6 2.7-4 4.1L24.6 47.3c-.7.7-1.1.7-1.8 0l-17-17C3.5 28 2.2 25.2 2 21.9c-.3-3.5.8-6.6 3-9.3 2.3-2.9 5.4-4.4 9.1-4.7 2.7-.3 5.2.4 7.5 1.7.1 0 .2.1.3.2.205-1.23.4-2.558.4-3.8 0-.2-.1-.5-.2-.7-.4-.5-.5-.9-.2-1.5S22.6 2.6 23 2c.124-.186.2-.1.2-.7V.6c0-.3.3-.6.6-.6s.6.2.6.6v.5c0 .2.1.7.2.9.445.741.722 1.284 1.2 2 .2.4.2.7-.1 1-.4.4-.5.8-.4 1.3.057 1.14.3 2.257.3 3.4zm-9.3 25.1h-2.1c-.3 0-.5 0-.7-.3-.2-.3 0-.5.1-.8.3-.4.5-.7.8-1.1l3.6-5.7c.2-.3.2-.4-.2-.4s-.6-.3-.6-.6.2-.6.6-.6h.8c.1 0 .3-.1.4-.2.4-.9.9-1.8 1.2-2.7.3-.7.5-1.4.7-2.1.1-.4 0-.5-.3-.5h-.5c-.4 0-.6-.3-.6-.6 0-.4.2-.6.7-.6h.6c.6 0 .6 0 .7-.6.2-1.7.4-3.4.5-5.1.1-1.3.1-1.3-1.1-2-2.2-1.2-4.6-1.6-7.1-1.3-3.7.5-6.5 2.4-8.4 5.6-1.3 2.2-1.6 4.6-1.3 7.2.3 2.5 1.4 4.7 3.2 6.5l5.2 5.2 11 11c.3.3.6.3.9 0 5.2-5.1 10.3-10.3 15.5-15.4 1.1-1.1 2.1-2.2 2.8-3.6 1.2-2.3 1.4-4.8 1.1-7.3-.3-2.2-1.4-4.2-2.9-5.8-1.1-1.1-2.3-2-3.7-2.6-2.2-.9-4.4-1.1-6.7-.7-1.6.3-3 .9-4.3 1.8-.2.1-.3.3-.2.5.2 1.9.4 3.7.5 5.6 0 .2 0 .5.1.7 0 .1.2.2.3.2h.8c.4 0 .7.2.7.6 0 .3-.3.6-.6.6h-.6c-.3 0-.4.1-.3.4.2.6.3 1.1.5 1.7.4 1 .8 2 1.2 2.9.2.4.4.6.8.5h.4c.4 0 .7.2.7.6 0 .4-.2.6-.7.7-.3 0-.3.1-.2.3.5.9 1 1.8 1.6 2.7.9 1.4 1.9 2.8 2.8 4.2.2.2.3.5.1.7-.2.3-.4.3-.6.3h-4.4c-.3 0-.5-.2-.6-.5-.2-.6-.4-1.2-.6-1.7-1.1-2.1-2.6-2.8-4.8-2.5-.5.1-1 .3-1.4.5-1.3.8-2 2.2-2.4 3.6-.1.5-.3.6-.7.6-.9.1-1.6.1-2.3.1zm7.5-15h-1.3c-.1 0-.3.1-.3.2-.1.2-.1.5-.2.7-.3 1.3-.8 2.6-1.4 3.8-.6 1.2-1.2 2.4-1.9 3.6-1 1.7-2.1 3.3-3.2 5-.1.1-.1.2-.1.3.1 0 .2.1.3.1h1.9c.2 0 .4-.1.4-.3.2-.4.4-.9.6-1.3.5-1 1.1-1.8 2-2.4 1.5-.9 3.1-1.1 4.7-.6 1.4.4 2.5 1.3 3.2 2.6.3.5.5 1.1.8 1.6.1.2.2.3.4.3h2.1c.1 0 .3 0 .3-.1s0-.2-.1-.3c-.6-.9-1.3-1.9-1.9-2.8-1.4-2.2-2.6-4.4-3.6-6.7-.5-1.2-.8-2.4-1.2-3.6-.1-.2-.1-.3-.3-.3-.4.2-.8.2-1.2.2zm-.8-7.1c-.1.8-.2 1.5-.2 2.2-.1 1.1-.2 2.2-.4 3.2 0 .3 0 .4.3.4h2c.3 0 .4-.1.3-.4-.1-1-.3-2-.4-3.1-.1-.8-.2-1.5-.2-2.4-.4.6-.9.6-1.4.1zm.8-10-1.02 1.9s.727.623.82.9c0 0-.202 3.33-.3 4.8 0 .3.2.5.4.6.2.1.4 0 .6-.1.2-.2.2-.4.2-.6-.1-2.5-.5-4.7-.5-4.7l1-1-1.2-1.8z" fill="#B79C10"/><path fill-rule="evenodd" clip-rule="evenodd" d="M12.9 12.1c.5 0 .9.4.9.8.1.4-.2.7-.6.9-.6.2-1.2.4-1.8.8-2.2 1.4-3.5 3.4-3.5 6 0 .7.1 1.5.2 2.2 0 .4-.3.9-.7 1-.4.1-.9-.1-1-.6-.3-.9-.4-1.9-.4-2.8.1-1.4.5-2.7 1.1-3.9 1.1-1.9 2.6-3.3 4.6-4.1.5-.1.9-.2 1.2-.3zM23.8 26.8h-1.6c-.5 0-.8-.3-.7-.8.2-.8.4-1.6.6-2.3.1-.6.2-1.2.3-1.9.1-.4.2-.7.7-.7h1.4c.4 0 .6.2.7.6.3 1.4.6 2.8.9 4.3.1.6-.1.9-.7.9-.6-.1-1.1-.1-1.6-.1zm-.1-1.3h.7c.2 0 .2-.1.2-.3-.2-.9-.4-1.7-.6-2.6 0-.2 0-.4-.3-.4s-.3.2-.3.4c-.1.7-.2 1.3-.4 2-.1.9-.2.9.7.9z" fill="#B79C10"/><path fill-rule="evenodd" clip-rule="evenodd" d="M34.3 11.2c-.5 0-.9.4-.9.8-.1.4.2.7.6.9.6.2 1.2.4 1.8.8 2.2 1.4 3.5 3.4 3.5 6 0 .7-.1 1.5-.2 2.2 0 .4.3.9.7 1 .4.1.9-.1 1-.6.3-.9.4-1.9.4-2.8-.1-1.4-.5-2.7-1.1-3.9-1.1-1.9-2.6-3.3-4.6-4.1-.5-.1-.9-.2-1.2-.3z" fill="#fff"/></svg>