<svg width="151" height="32" fill="none" xmlns="http://www.w3.org/2000/svg"><path d="M38.318 24.275c.974-.16 1.948.161 2.76.804.162.16.162.161 0 .482l-.486.483c-.163.16-.163.16-.325 0-.812-.643-1.786-.643-2.598-.161-.65.482-.974 1.447-.812 2.41.163.805.974 1.448 1.786 1.61.649.16 1.136 0 1.624-.483.162-.16.325-.16.487 0l.487.482c.162.161.163.322 0 .483-.487.482-.974.643-1.624.803h-1.299v-.16c-.324-.161-.812-.161-1.136-.322-1.3-.643-2.111-2.09-1.787-3.537.325-1.447 1.462-2.733 2.923-2.894zm20.62-.16c.163 0 .325 0 .488.16 1.299 1.287 2.435 2.573 3.734 4.02l.162.16v-3.697c0-.322 0-.322.325-.322h.65c.325 0 .324 0 .324.322v6.108c0 .161 0 .162-.162.323h-.324v-.162c-1.3-1.447-2.599-2.894-4.06-4.34v3.858c0 .321 0 .321-.324.321h-.65c-.162 0-.325 0-.325-.321v-6.109c0-.16 0-.322.162-.322zm-15.748 0c.324 0 .324 0 .324.322v3.697c0 .482.162.803.325 1.125.325.482.974.482 1.46.321.488-.16.812-.642.812-1.285v-3.859c0-.321 0-.322.326-.322h.649c.325 0 .325.001.325.322v3.698c0 .964-.488 1.768-1.3 2.41-.324.162-.649.322-.973.322h-.65v.161c-.162 0-.325-.16-.487-.16-.974-.322-1.786-1.447-1.786-2.572v-3.859c0-.16 0-.322.325-.322h.65zm8.442.16c.974-.16 1.949.161 2.76.804.163.16.163.322 0 .482l-.487.483c-.162.16-.325.16-.487 0-.65-.482-1.46-.643-2.273-.321-.974.482-1.298 1.607-1.136 2.57.325.965 1.136 1.61 2.272 1.61.487 0 .812-.162 1.137-.483.162-.16.325-.16.487 0l.488.482c.162.16.162.161 0 .322-.487.482-.975.643-1.624.803h-.974c-.325 0-.488-.16-.813-.16-1.46-.483-2.434-2.09-2.272-3.698.162-1.447 1.46-2.733 2.922-2.894zm56.666-.16c.162 0 .324 0 .324.322v6.43h-.486v.16c-.325-.482-.65-.803-1.137-1.286-.974-.964-1.787-1.93-2.761-3.055 0-.007-.003-.16-.162-.16v4.019c0 .321 0 .321-.324.321h-.649c-.163 0-.326 0-.326-.321v-6.109c0-.16 0-.322.162-.322.163 0 .325 0 .488.161 1.299 1.287 2.435 2.573 3.734 3.859l.162.16v-3.858c0-.321.001-.322.325-.322h.65zm4.546.16c.162 0 .163.162.325.162.974 2.09 1.949 4.179 2.923 6.108.162.321-.001.321-.163.321h-.812c-.487.16-.649-.16-.811-.481 0-.161-.163-.483-.326-.644-.162-.16-.486 0-.811 0h-1.948c-.163 0-.163 0-.163.161-.163.322-.325.483-.325.804 0 .16-.162.321-.325.321h-.649c-.325 0-.325-.16-.162-.32.324-.805.649-1.448 1.136-2.252.65-1.286 1.137-2.572 1.787-3.858 0-.16.162-.161.324-.322zm-43.838 0c.162 0 .162.162.324.162.974 2.09 1.949 4.179 2.923 6.108.162.321 0 .321-.162.321h-.975c-.487.16-.649-.16-.811-.481 0-.161-.163-.323-.163-.323 0-.32-.162-.32-.487-.32h-2.273c-.163 0-.162 0-.162.16-.163.322-.326.483-.326.804 0 .16-.162.16-.324.16h-.65c-.324 0-.325-.16-.162-.321.487-1.125 1.137-2.412 1.624-3.537.487-.804.812-1.768 1.299-2.572 0-.16.163-.16.325-.16zm29.875-.16c.162 0 .162.16.324.16.974 2.09 1.949 4.18 2.923 6.11.162.32 0 .321-.162.321h-.65v.16c-.487.161-.65-.16-.812-.481 0 0 0-.161-.162-.161-.163-.483-.325-.483-.812-.483H97.42c-.162 0-.162 0-.324.161-.163.322-.326.483-.326.804 0 .16-.161.16-.324.16h-.65c-.324 0-.324-.16-.161-.321.487-1.125.974-2.09 1.46-3.215.488-.964.975-1.93 1.462-3.055 0-.16.163-.16.325-.16zm-42.053 0c.325 0 .324 0 .324.322v6.108c0 .321 0 .321-.324.321h-.65c-.324 0-.325 0-.325-.321v-6.109c0-.321.001-.322.326-.322h.65zm18.997 0c.325 0 .324 0 .324.322v6.108c0 .16 0 .321-.324.321h-.812c-.163 0-.325 0-.325-.321.163-.965.163-1.93.163-3.055v-3.053c0-.322 0-.323.324-.323h.65zm5.52.16c.163 0 .163 0 .163.162v.642c0 .16 0 .321-.325.321h-1.461v5.145c0 .321 0 .321-.325.321h-.65c-.324 0-.324 0-.324-.321V25.4h-.975c-.324 0-.324 0-.324-.32v-.483c0-.322 0-.322.324-.322h3.898zm8.119-.32c.324 0 .324-.001.324.32v5.466h2.273c.163 0 .325 0 .325.322v.643c0 .16 0 .16-.162.16h-3.41c-.162 0-.163 0-.163-.321v-6.27c0-.16.001-.32.163-.32h.65zm4.87.16c.325 0 .325 0 .325.322v6.108c0 .321 0 .321-.325.321h-.65c-.162 0-.324 0-.324-.321V27.49h.162v-3.053c0-.322 0-.323.326-.323h.486zm-9.58 0c.163 0 .163.16.325.16.974 2.09 1.949 4.18 2.923 6.11.162.321 0 .321-.162.321h-.65c-.162 0-.325 0-.325-.161-.162-.321-.324-.482-.324-.804 0-.156-.153-.16-.162-.16h-3.085s-.163 0-.163.16c-.162.322-.324.643-.487.804 0 .16-.162.161-.325.161h-.65c-.324 0-.323-.16-.161-.321.65-1.286 1.136-2.412 1.786-3.699.325-.803.811-1.607 1.136-2.41 0-.161.162-.162.325-.162zM68.52 26.525c-.325.643-.65 1.447-.975 2.09h1.948a26.096 26.096 0 0 0-.973-2.09zm16.074 0c-.325.643-.65 1.447-.975 2.09h1.948a26.096 26.096 0 0 0-.973-2.09zm14.126 0c-.325.643-.65 1.447-.975 2.09h1.948a26.096 26.096 0 0 0-.973-2.09zm13.801 0c-.325.804-.65 1.447-.975 2.09h1.948a26.421 26.421 0 0 0-.973-2.09zm-83.619.16c.325 0 .325 0 .325.322v.965H1.136v-1.287h27.765zm120.962 1.287h-28.089v-1.125h28.089v1.125zM123.885.16c.162-.16.325 0 .487.16.162.965.325 1.93.649 2.894 0 .16 0 .322-.325.482-.162 0-.487.161-.649.161-.162 0-.324 0-.486-.16-.001-.322-.163-.483-.164-.643-.487-1.126-1.461-1.608-2.597-1.608-.974 0-1.623.482-2.111 1.125-.649.804-.812 1.77-.974 2.734-.162.964-.162 1.929-.324 2.893 0 .643-.001 1.125-.163 1.608 0 .964.163 2.09.163 3.054 0 .482.161 1.126.486 1.608.487.804 1.137 1.286 1.949 1.447.974.16 1.786 0 2.598-.482.487-.322.812-.804 1.137-1.286.162-.322.161-.643-.164-.804-.001-.002-.162-.161-.324-.161-.811-.322-1.137-1.125-.974-1.93.162-.803.974-1.285 1.786-1.285s1.461.642 1.624 1.446c.162.643 0 1.447-.162 2.09-.163.965-.651 1.768-1.3 2.572-.812.804-1.624 1.125-2.598 1.286-1.948.161-3.572-.32-5.195-1.446-1.137-.965-1.949-2.251-2.436-3.698-.811-2.733-.812-5.305.325-7.877.811-2.09 2.436-3.377 4.546-4.02 1.462-.321 2.923-.16 4.222.322.325.16.487.16.65-.16l.324-.322zm-21.595.16c.325 0 .487.161.487.483v1.93c0 .32-.162.48-.487.48h-.649c-.325 0-.488-.16-.488-.48V2.25c0-.321-.162-.482-.486-.482h-3.734c-.163 0-.326.16-.326.32l.162 4.984h2.6c.323 0 .485.161.486.483v.482c0 .321-.162.482-.487.483h-2.76v6.752c0 .321.162.482.487.482h.65c.324 0 .486.16.486.482v.643c0 .321-.162.482-.325.482h-6.332c-.325 0-.325-.16-.325-.321v-.643c0-.322.163-.482.487-.482h.488c.162 0 .325-.162.325-.322V2.09c0-.322 0-.483-.488-.483h-.487c-.162 0-.325-.16-.325-.32V.642c0-.321.163-.322.487-.322h10.554zM61.7 0c.324 0 .648.161.973.161.325.16.812.32 1.137.482.162.16.324.16.649-.16l.325-.322c.162-.16.486 0 .486.16.325.965.488 1.93.813 2.894 0 .16 0 .322-.162.322-.163.16-.488.16-.65.321-.325.16-.325 0-.487-.16-.162-.483-.487-.965-.974-1.447-.488-.482-1.137-.804-1.949-.965-.811 0-1.299.483-1.136 1.447.162.483.486.965.811 1.287l1.95 1.446c.811.643 1.622 1.125 2.272 1.768.812.804 1.624 2.09 1.786 3.537.162 2.412-.812 4.501-2.923 5.627-1.948.964-3.896 1.286-5.845.482-1.786-.643-2.922-1.93-3.247-3.858-.324-.804-.325-1.769.162-2.573.812-1.607 3.41-1.928 4.546-.321.65.804.326 2.25-.486 2.733-.812.643-2.112.322-2.599-.482l-.162-.161c-.162 0-.162.16-.162.482.162.482.162.965.324 1.286a3.173 3.173 0 0 0 1.462 1.448c1.299.643 2.436.642 3.735.16 1.46-.643 1.947-1.93 1.623-3.376-.325-1.125-.975-1.93-1.787-2.572-.811-.643-1.785-1.286-2.597-1.93a7.66 7.66 0 0 1-1.623-1.607C56.504 4.18 56.99 1.768 59.1.643 59.588.32 60.075.16 60.563 0h1.136zm81.831 0c.325 0 .65 0 1.137.161 1.461.16 2.598.804 3.734 1.608 1.462 1.286 2.111 2.733 2.436 4.662.162.321.162.643.162 1.125v2.893c-.325 1.769-.812 3.216-1.948 4.502-.974 1.125-2.274 1.768-3.573 2.09-1.623.322-3.247.321-4.871-.161-2.272-.643-3.734-2.25-4.546-4.34-.487-1.125-.649-2.251-.649-3.537 0-1.447 0-2.733.487-4.02.975-2.732 2.923-4.34 5.845-4.822.325-.16.65-.161.975-.161h.811zM49.684.321c.324 0 .487.161.487.322.812 3.536 1.624 6.913 2.273 10.45.325 1.447.65 2.893.974 4.18 0 .321.163.32.487.32h.488c.324 0 .324.162.324.483v.644c0 .32-.162.482-.324.482h-6.17c-.325 0-.488 0-.488-.482v-.644c0-.321.163-.321.325-.321h.65c.324 0 .324-.16.324-.321-.162-.965-.487-1.769-.65-2.573h-4.22c-.163 0-.163 0-.163.16-.162.804-.325 1.448-.487 2.252 0 .321 0 .482.325.482h.65c.324 0 .324.16.324.482v.643c0 .16-.162.322-.325.322h-3.572c-.162 0-.324-.161-.324-.322v-.804c0-.16.162-.321.324-.321h.65c.486 0 .487 0 .487-.482.325-1.608.812-3.376 1.137-4.984.649-2.733 1.298-5.305 1.948-8.038 0-.322 0-.482-.325-.482-.487 0-.487-.162-.487-.644V.804c0-.322.162-.483.486-.483h4.872zm-34.26 0c.325 0 .488.161.488.483v.643c-.162.16-.163.16-.487.16h-.488c-.324 0-.487.161-.487.483v13.183c0 .32.163.482.488.482h3.41c.324 0 .486-.161.486-.482v-.643c0-.16.163-.322.325-.322h.65c.162 0 .325.161.325.322v2.09c0 .32-.163.321-.325.321H9.255c-.325 0-.487-.16-.487-.482v-.483c0-.321.162-.322.325-.482h.487c.325 0 .486-.161.486-.483v-6.43h.163v-6.43c0-.482-.162-.644-.487-.644h-.65c-.162 0-.324 0-.324-.32V.642c0-.161.163-.322.325-.322h6.332zm73.553 0c.162 0 .323.161.324.322v.804c.325.161.162.16-.162.16h-.65c-.324 0-.324.161-.324.322v13.344c0 .32.162.482.486.482h.488c.324 0 .325.16.325.321v.644c0 .32-.163.321-.325.321h-6.332c-.325 0-.326-.16-.326-.321v-.644c0-.321.163-.482.488-.482h.487c.325 0 .487-.161.487-.483V2.09c0-.322-.162-.483-.487-.483h-.65c-.324 0-.487-.16-.487-.32V.642c0-.161.163-.322.325-.322h6.333zm22.244 0c.162 0 .324.161.324.322v.804c0 .16-.163.16-.487.16h-.487c-.487 0-.487.161-.487.483V15.11c0 .483.163.483.487.483h.65c.162 0 .324.161.324.322v.804c0 .16-.162.32-.324.321h-6.333c-.325 0-.487-.161-.487-.482v-.483c0-.321.162-.482.487-.482h.65c.325 0 .486-.161.486-.483V2.09c0-.321-.162-.482-.486-.483h-.65c-.163 0-.324-.16-.325-.32V.642c.001-.16.163-.321.325-.322h6.333zm23.055 0c.163 0 .325.161.326.322v.804c-.163.161-.325.16-.488.16h-.649c-.325 0-.325.161-.325.483V15.11c0 .483 0 .483.487.483h.649c.163 0 .326.161.326.322v.804c-.001.16-.163.321-.326.321h-6.332c-.324 0-.487-.16-.487-.482v-.483c0-.321.163-.482.325-.482h.65c.324 0 .486-.161.486-.483V2.09c0-.322-.162-.482-.324-.483h-.65c-.162 0-.325-.16-.325-.32V.642c0-.161.163-.322.325-.322h6.332zM6.494.321c.325 0 .487.161.487.483v.643c0 .16 0 .16-.324.16h-.65c-.161 0-.324.161-.324.322V15.11c0 .161.162.323.325.323h.65c.324 0 .323.16.323.32v.644c0 .321-.162.482-.487.482H.487c-.162 0-.325 0-.487-.16v-.804c.162-.16.325-.161.65-.161h.325c.486 0 .649 0 .649-.644V2.09c-.162-.322-.325-.482-.65-.483H.488c-.162.161-.325.001-.487-.16V.482c.162-.16.325-.16.487-.16h6.007zm27.928 0c1.299 0 2.598.322 3.734.804 2.11.965 3.085 2.734 3.085 4.984 0 1.447-.487 2.734-1.624 3.859a5.057 5.057 0 0 1-2.923 1.446 6.111 6.111 0 0 1-1.948.321v3.376c0 .322.163.483.487.483h.65c.325 0 .324.161.324.322v.643c0 .16-.162.32-.324.32H29.55c-.325 0-.325-.16-.325-.32v-.643c0-.322.162-.482.325-.482h.487c.324 0 .486-.162.486-.483v-12.7c0-.321-.162-.482-.486-.482h-.65c-.163-.161-.325-.161-.325-.483V.643c0-.16.163-.321.325-.322h5.034zM80.533 0c.325 0 .487.16.487.482v1.93c0 .32-.162.482-.487.482h-.65c-.324 0-.486-.161-.486-.483V1.77c0-.161-.162-.322-.325-.322-.811.161-1.623.16-2.597.16v13.344c0 .482.162.483.486.483h.487c.325 0 .488.16.488.482v.482c0 .321-.163.482-.488.482h-6.17c-.324 0-.487-.161-.487-.482v-.482c0-.322.163-.482.487-.482h.65c.325 0 .325-.162.325-.323V1.77H69.98c-.325 0-.488.16-.488.482v.482c0 .321-.162.322-.324.322h-.65c-.324 0-.487-.161-.487-.483V.482c0-.321.163-.482.488-.482h12.014zm62.836 1.447c-1.299 0-2.273.482-2.923 1.768-.324.482-.487 1.125-.649 1.768-.162 1.126-.163 2.413-.325 3.699.162.964.163 1.768.163 2.732 0 .804.324 1.607.649 2.411.65 1.608 1.786 2.251 3.409 1.93 1.137-.16 1.787-.804 2.274-1.769.325-.804.649-1.768.649-2.572.163-2.09.163-4.019 0-6.108-.162-.804-.325-1.608-.649-2.251-.487-.965-1.461-1.447-2.598-1.608zM2.923 15.594h1.299V1.769h-1.3v13.825zm8.767 0h1.3V1.769h-1.3v13.825zm20.296 0h1.3V1.769h-1.3v13.825zM47.573 1.769c.974 4.662 1.949 9.323 2.923 13.825h1.461c-.974-4.662-2.11-9.324-3.085-13.825h-1.299zm26.14 13.825h1.3V1.769h-1.3v13.825zm11.691 0h1.3V1.769h-1.3v13.825zm8.606 0h1.299V1.769h-1.3v13.825zm13.313 0h1.3V1.769h-1.3v13.825zm23.057 0h1.299V1.769h-1.299v13.825zm8.93-13.343c-.005 0-.162.002-.163.16-.162.16-.162.162-.325.322-1.136 1.126-1.623 2.572-1.948 4.019-.162.965-.162 1.93 0 3.055.162 1.125.325 2.25.812 3.214.324.643.812 1.126 1.461 1.769-.974-2.09-1.136-4.18-1.136-6.27s.324-4.18 1.299-6.269zm-22.407.16c-1.299 1.286-1.949 2.894-2.111 4.662-.162 1.286-.162 2.412.163 3.698 0 1.126.324 2.09.974 3.055.162.322.325.482.487.804-.974-4.18-.812-8.36.649-12.379l-.162.16zm30.037 0c0 .14.125.281.157.422l.013.121c.031.14.156.281.156.422.649 1.768.812 3.376.974 5.306 0 1.446-.162 2.733-.487 4.18 0 .32-.163.964-.325 1.607.649-.643 1.137-1.286 1.462-2.09.487-.965.649-1.93.649-2.894.162-1.768-.163-3.376-.812-4.984-.325-.804-.812-1.447-1.461-1.929-.163 0-.163-.16-.326-.16zm-88.001.322c-.487.804-.325 1.447 0 2.09.324.482.811.964 1.298 1.447.974.803 1.949 1.447 2.923 2.25.487.483.974.804 1.461 1.287.65.803.974 1.768 1.137 2.893.325-.482.325-1.125.325-1.768-.162-.965-.487-1.607-1.137-2.25-.65-.804-1.461-1.447-2.435-2.09-.812-.643-1.624-1.286-2.436-1.769-.487-.482-.974-.965-1.137-1.768v-.322zm-12.502.804c-.65 2.572-1.3 5.305-1.949 8.038h3.735c-.65-2.733-1.3-5.466-1.786-8.038zm-11.69 6.912c1.136 0 2.272-.16 3.246-.642.812-.483 1.3-.965 1.624-1.769.163-.482.325-1.125.325-1.607 0-.965-.163-1.93-.812-2.734-.812-.803-1.623-1.286-2.76-1.607-.487-.322-.974-.321-1.624-.321v8.68z" fill="#313030"/></svg>