<svg width="189" height="49" fill="none" xmlns="http://www.w3.org/2000/svg"><path d="M46.633 1.485C48.936.14 50.663-.243 52.007.14c.959.192 1.535.768 2.11 1.535.576.576.768 1.536.96 2.495.192 1.92-.384 4.222-1.919 6.14-3.07 3.839-9.596 6.334-13.626 7.87-.767.191-1.343.575-1.919.767h.577c1.156-.193 29.937-3.07 31.856 7.1v.576c1.535-.383 2.878-.575 4.03-.767 1.726-.384 3.262-.576 4.606-.96.575-1.727 1.726-3.455 2.878-4.798.575-.576 1.343-1.151 1.727-1.535.768-.384 1.536-.383 2.111.192.576.576.767 1.535.576 2.303-.192.96-.576 2.11-1.152 2.686-.96 1.152-2.495 1.727-5.181 2.303v.193c-.384 1.343-.192 2.686.576 3.454.767.192 2.11 0 4.03-.768 1.918-.767 4.413-2.303 6.716-4.605l.384-.384c.384-2.111 1.152-4.606 2.111-6.91.192-.383.576-1.535 1.344-3.07.575-1.343 1.343-2.879 1.919-4.414 1.343-3.07 2.494-4.797 3.07-5.373.576-.575 1.151-.575 1.535-.191.384.192.575.767.575 1.343 0 1.151-.383 3.646-1.342 6.333-2.111 5.757-4.99 10.17-7.869 13.24-.191.768-.192 1.537-.192 2.112 0 .96 0 1.728.192 2.495.192.576.384.767.768.96h.384c.767 0 1.92-.385 3.263-1.152 1.535-.96 3.646-2.495 6.333-4.798.575-.575.959-.96 1.342-1.151.384-.384.576-.575.96-.575.959.191.767.575.192 1.919-.192.191-.192.575-.384.958-.192.576-.575 1.344-.575 2.112 0 .575-.001.959.191 1.343 0 0 .001.192.192.192.384.576 1.152.768 2.303.576a11.515 11.515 0 0 0 3.838-1.344l2.303-1.151c0-.768 0-1.536.384-2.111a6.615 6.615 0 0 1 3.837-4.03h.193c.576-.192 1.151 0 1.535.192.384.192.576.575.768 1.151 0 .384 0 .768-.192 1.344-.576 1.151-1.727 2.495-3.646 3.838-.192.192-.576.383-.96.575.192.384.192.768.384.96.383.576 1.151.96 2.111.96 2.686 0 6.333-4.03 8.252-6.333.959-1.152 1.535-1.727 2.111-1.92.576.001.767.193.959.768v.768c0 1.344.193 4.222.193 5.757 1.151-1.919 3.645-4.605 5.18-6.14.384-.384.769-.769 1.153-.96 1.151-.768 1.727-.768 1.535.576-.001.191-.193.383-.193.575-.384.575-.383.96-.191 1.344.192.383.959.575 1.726.767.576.192 1.344.191 2.112.191.384-.767.767-1.343 1.151-1.919 1.343-1.727 3.071-2.686 4.798-2.11.384.192.768.384 1.151.768.192.383.384.767.384 1.343-.384 1.919-3.263 3.07-6.141 3.262v.192c-.192.96 0 1.728.576 2.303.959.96 2.879 1.535 6.333.768l.959-.193c5.373-.959 28.21-5.565 33.2-2.302.959.576 1.535 1.535 1.343 2.686-.516 2.579-2.57.846-2.856.319.223.189 1.376-.044.553-.703-4.606-2.878-26.866 1.536-32.048 2.496-.384 0-.768.191-.96.191-4.029.767-6.524 0-7.676-1.343-.959-.96-1.151-2.303-.96-3.646-.767 0-1.534 0-2.11-.193-1.151-.191-2.111-.767-2.495-1.342-.192-.192-.192-.576-.384-.768-1.919 1.727-4.605 4.798-4.989 6.333-.192.96-.768 1.15-1.344.959-.959-.384-1.151-4.99-1.343-7.676 0 .192-.192.192-.383.384-2.111 2.495-5.95 6.908-9.405 6.908-1.535 0-2.686-.576-3.261-1.535l-.577-1.151c-.575.383-1.343.768-1.919.96-1.343.575-2.878 1.15-4.414 1.342-1.535.192-2.878-.191-3.645-1.342-.192-.192-.193-.193-.193-.384-.383-.768-.383-1.536-.383-2.304 0-.383.192-.767.192-1.151-2.495 1.919-4.222 3.263-5.758 4.223-1.727 1.15-3.07 1.534-4.221 1.342-.384 0-.576 0-.768-.191-.96-.384-1.344-.96-1.727-1.92-.192-.767-.384-1.919-.192-3.07v-.384c-2.11 1.919-4.413 3.262-6.14 4.03-2.303.96-4.031 1.151-4.99.768-.193-.192-.577-.192-.768-.384-1.152-1.152-1.344-2.687-1.152-4.414-1.151.192-2.303.576-3.838.767-1.343.192-2.879.577-4.414.96-2.11 9.403-28.4 17.463-28.593 17.656-.384.192-6.718 2.302-9.98 2.302-.575 0-1.151 0-1.727-.191-.575-.192-.96-.768-.96-1.344l.193-.384c.007-.01.39-.583 1.151-1.343 1.728-2.111 5.95-5.95 14.201-9.979 5.182-2.495 12.09-4.99 20.917-7.1 1.152-.384 2.496-.576 3.456-.768v-.576c-1.536-9.02-30.13-5.757-30.13-5.757-.96 0-1.535 0-2.11-.191-.768-.192-1.153-.385-1.345-.96 0-.384.192-.768.768-1.152l1.151-.576c.576-.192 1.344-.575 2.112-.959 3.838-1.535 9.979-4.03 12.857-7.484 1.152-1.344 1.727-3.263 1.535-4.99 0-.575-.191-1.151-.575-1.727-.383-.384-.767-.767-1.151-.768-.96-.192-2.304 0-4.223 1.152-.96.575-1.726 1.152-2.494 1.727-1.151.96-2.11 1.727-2.687 2.494-4.03 4.03-7.676 9.212-10.747 14.585a91.228 91.228 0 0 0-3.262 5.95c.192.96.192 1.919.192 2.878.192 4.798-.96 8.444-2.303 10.939-.767 1.535-1.92 2.686-2.687 3.07-.384.192-.96.384-1.343.192-.384-.192-.768-.384-.96-.96-.192-.767-.192-2.11.384-4.03.96-3.07 2.687-7.676 4.99-12.473-.384-2.303-.96-4.607-1.92-7.293-.767-2.303-1.919-4.414-3.454-5.757-1.535-1.535-3.454-2.495-6.14-2.879-2.495-.384-4.798-.384-7.101 0-2.11.192-4.03.576-5.373.96h.191c2.303 1.343 4.414 3.455 6.717 5.565 3.646 3.455 7.293 6.909 9.596 5.373 3.837-3.837-7.867-9.21-10.555-9.403 4.606-.959 14.584 4.798 12.665 9.212-.192.576-.576.96-1.151 1.343C17.079 27.2 13.05 23.36 8.828 19.33c-2.11-2.11-4.414-4.221-6.525-5.373-.576-.383-.96-.575-1.343-.575C.384 13.191 0 13 0 12.423c0-.575.576-.767 1.728-1.151.191 0 .384-.193.767-.193 1.343-.383 3.454-.767 5.757-1.15 2.303-.193 4.798-.385 7.484 0 2.879.383 5.181 1.535 6.909 3.262 1.343 1.343 2.303 2.879 3.07 4.798.96 2.494 1.727 4.99 2.111 7.1.768-1.343 1.535-2.686 2.303-4.221 3.07-5.374 6.909-10.94 10.938-14.97.576-.575 1.536-1.535 2.88-2.494.767-.768 1.726-1.344 2.686-1.92zm19.19 28.21c-8.635 1.919-15.352 4.413-20.533 6.908-7.868 3.838-12.09 7.677-13.626 9.596l-.768.767h.96c3.248 0 9.538-2.282 9.595-2.303-.17.186 24.374-7.488 27.251-15.544-.96.191-1.92.384-2.879.576zm4.03 9.403c.768 0 1.536.576 1.536 1.535 0 .768-.576 1.343-1.152 1.535l.96 1.92s0 .192-.192.192h-.768l-.96-1.92h-1.151v1.92c0 .187-.183.191-.191.191l-.577-.191h.193v-4.99c0-.188.184-.192.191-.192h2.111zm8.636 0c.192 0 .192.192.192.192v.384c0 .188-.185.192-.192.192h-2.303V41.4h1.92c.191 0 .19.192.19.192v.384c0 .188-.184.191-.19.191h-1.92v1.535h2.303c.192 0 .192.193.192.193v.384c0 .188-.185.191-.192.191l-3.07-.191v-4.99c0-.188.185-.192.191-.192h2.88zm5.95.384c.758 0 1.329.375 1.342.384v.192l-.191.191h-.193c-.013-.008-.58-.383-.959-.383-.575 0-.767.384-.767.576 0 .383.383.767.959.959.767.384 1.535.768 1.535 1.727 0 .768-.767 1.343-1.727 1.343-.767 0-1.343-.383-1.535-.575-.192-.192-.192-.192.192 0 0-.192.192-.192.192-.384h.191c0 .192.576.575 1.152.575.384 0 .767-.384.767-.767 0-.384-.384-.576-1.15-.96-.768-.191-1.344-.767-1.344-1.534 0-.576.384-1.344 1.535-1.344zm8.443-.384c.192 0 .192.192.192.192v.384c0 .192-.192.192-.192.192H91.73v4.414c0 .186-.182.19-.192.191l-.576-.191h-.191v-4.414h-1.153c-.186 0-.191-.182-.191-.192v-.384c0-.186.18-.192.191-.192h3.263zm23.221 0c.767 0 1.535.576 1.535 1.535 0 .768-.576 1.343-1.152 1.535l.96 1.92s0 .192-.192.192h-.768l-.959-1.92h-1.152v1.92c0 .19-.187.191-.191.191l-.577-.191h.384v-4.99c0-.191.193-.192.193-.192h1.919zm14.201 0 3.262 3.647V39.29c0-.19.188-.192.192-.192h.384c.192 0 .192.192.192.192v4.99c0 .191-.192.191-.192.191h-.192l-3.262-3.838v3.647c-.001.191-.193.191-.193.191l-.575-.191v-4.99c0-.187.182-.192.191-.192h.193zm11.131 0c.191 0 .191.192.191.192v.384c0 .186-.181.191-.191.192h-1.153v4.414c0 .19-.188.191-.191.191l-.576-.191h-.192v-4.414h-1.151c-.187 0-.192-.183-.193-.192v-.384c0-.191.193-.192.193-.192h3.263zm17.079 0c.192 0 .192.192.192.192v.384c0 .192-.192.192-.192.192h-2.303V41.4h1.919c.192 0 .192.192.192.192v.384c0 .191-.192.191-.192.191h-1.919v1.535h2.303c.192 0 .192.193.192.193v.384c0 .191-.192.191-.192.191l-3.071-.191v-4.99c0-.187.183-.192.192-.192h2.879zm6.908-.191c.576 0 1.152.383 1.727.767v.192l-.383.383h-.193c-.384-.383-.959-.575-1.343-.575-1.151 0-1.918.96-1.918 1.92 0 .959.959 1.918 1.918 1.918.576 0 1.152-.192 1.152-.192v-.768h-.768c-.188 0-.192-.184-.192-.191v-.384c0-.192.192-.192.192-.192h1.344c.191 0 .191.192.191.192v1.919c-.008.006-.774.575-1.919.575-1.535 0-2.686-1.151-2.686-2.686s1.343-2.686 2.878-2.878zm8.636 0c.575 0 1.151.383 1.727.767v.192l-.384.383h-.192c-.384-.383-.959-.575-1.343-.575-1.151 0-1.919.96-1.919 1.92 0 .959.768 1.918 1.919 1.918.576 0 1.152-.192 1.152-.192v-.768h-.768c-.188 0-.192-.184-.192-.191v-.384c0-.192.192-.192.192-.192h1.344c.191 0 .191.192.191.192v1.919a3.444 3.444 0 0 1-1.919.575c-1.535 0-2.686-1.151-2.686-2.686s1.151-2.686 2.878-2.878zm6.716.191c.192 0 .193.192.193.192v4.99c0 .191-.193.191-.193.191l-.575-.191h-.192v-4.99c0-.191.192-.192.192-.192h.575zm7.869 0c.191 0 .192.192.192.192v.384c0 .192-.192.192-.192.192h-2.303V41.4h1.919c.192 0 .192.192.192.192v.384c0 .192-.192.191-.192.191h-1.919v1.535h2.303c.191 0 .192.193.192.193v.384c0 .191-.192.191-.192.191l-3.071-.191v-4.99c0-.191.193-.192.193-.192h2.878zm-90.003 0 2.302 4.99s0 .192-.192.192h-.384c-.192 0-.191-.193-.191-.193l-.384-.959h-2.495c0 .192-.192.576-.384.96 0 .191-.192.192-.192.192h-.384c-.192 0-.192 0-.384-.193l2.303-4.989h.385zm6.908 0c.192 0 .191.192.191.192v3.07c0 .768.384 1.343 1.152 1.343.767 0 1.152-.575 1.152-1.342v-3.07c0-.19.187-.193.191-.193h.577c.191 0 .191.192.191.192v3.07c0 .96-.96 1.92-2.111 1.92-1.151 0-1.919-.768-1.919-1.92h-.192v-3.07c0-.187.182-.192.192-.192h.576zm17.847 0 2.303 4.99s0 .192-.192.192h-.384c-.192 0-.191-.193-.191-.193l-.384-.959h-2.495c0 .192-.192.576-.384.96 0 .191-.192.192-.192.192h-.384a.598.598 0 0 1-.384-.193l2.303-4.989h.384zm23.988 0 1.727 3.647 1.536-3.647h.767c.192 0 .192.192.192.192l-2.303 4.99h-.384l-2.494-4.99s0-.192.191-.192h.768zm-119.94-8.06c-1.728 3.838-3.07 7.484-3.838 9.979-.384 1.535-.576 2.494-.384 3.07.575-.384 1.343-1.343 2.11-2.494 1.343-2.303 2.303-5.757 2.111-10.17v-.384zM97.68 42.552h1.919l-.96-2.11-.96 2.11zm24.756 0h1.918l-.959-2.11-.959 2.11zm-54.31-2.686v1.919h1.344c.575 0 .959-.384.959-.96 0-.575-.576-.96-.96-.96h-1.343zm46.249 0v1.919h1.344c.575 0 .96-.384.96-.96 0-.575-.385-.96-.96-.96h-1.344zm71.773-7.485c0-.03.009-3.64 2.112-2.494 2.295 1.148-2.089 2.487-2.112 2.494zm-4.232-1.699a.218.218 0 0 0 .033.099c-.03-.026-.045-.057-.033-.099zm-63.127-7.128c-1.343.384-2.302 1.535-2.878 2.878 0 .192-.192.384-.192.768l.192-.192c1.727-1.151 2.687-2.302 3.07-3.07 0-.192.193-.384.193-.384h-.385zm27.827.192c-.959-.384-2.112.383-3.071 1.535-.192.192-.383.576-.575.96 2.111-.384 3.838-.96 4.03-1.92v-.192l-.384-.384zM84.63 20.29a.595.595 0 0 0-.384.192c-.192.192-.767.576-1.343 1.152-.767.768-1.535 2.11-2.111 3.262 1.727-.384 2.687-.96 3.263-1.727.383-.383.575-1.151.767-1.919 0-.384 0-.96-.192-.96zm16.312-14.2c-.575.767-1.343 2.11-2.495 4.413-.767 1.536-1.343 3.071-1.919 4.414-.575 1.727-.96 2.687-1.151 3.07-.384 1.344-.959 2.687-1.343 3.838 2.111-2.686 4.03-6.14 5.565-10.363.767-2.302 1.343-4.221 1.343-5.373zm14.777 4.03c.575 0 .575-.001 0 .19-.576.193-1.343.577-2.111 1.152-.767.384-1.535 1.152-2.111 2.112-.576.96-.96 1.919-.96 2.878 0 .96-.191 1.728-.575 1.92-.576.575-1.727.575-2.303-.384-.959-1.344-.192-2.303 1.152-2.687.191 0 .383-.192.767-.576.384-.384.96-.96 1.728-1.919.767-.768 1.535-1.535 2.302-1.919a9.36 9.36 0 0 1 2.111-.768z" fill="#313030"/></svg>