<svg width="48" height="48" fill="none" xmlns="http://www.w3.org/2000/svg"><g clip-path="url(#a)"><circle cx="23" cy="25" r="23" fill="#FFE145"/><path d="M25 46a22.931 22.931 0 0 0 11.859-3.292.767.767 0 0 0-.794-1.313 21.467 21.467 0 1 1-18.46-38.552.767.767 0 1 0-.529-1.44C6.603 5.242.392 16.042 2.343 27.024 4.295 38.006 13.845 46.005 25 46zM32.395 2.844a21.479 21.479 0 0 1 10.86 31.459.767.767 0 0 0 1.303.808A23.011 23.011 0 0 0 32.923 1.404a.767.767 0 1 0-.528 1.44z" fill="#B79C10"/><path d="M21.933 14.245v6.479a3.8 3.8 0 0 0 2.509 6.056l5.974 5.975.005.007L41.263 43.6a1.533 1.533 0 0 0 2.17 0c2.4-2.402.981-5.52-5.422-11.926l-3.253-3.253h-.005l-5.976-5.98a3.8 3.8 0 0 0-.71-1.717v-6.48a3.822 3.822 0 0 0 2.3-3.51V2.3a2.247 2.247 0 0 0-.795-1.731 2.27 2.27 0 0 0-3.039.03 2.257 2.257 0 0 0-1.558-.6 2.342 2.342 0 0 0-1.513.599 2.264 2.264 0 0 0-3.017-.044 2.266 2.266 0 0 0-.812 1.746v8.433a3.822 3.822 0 0 0 2.3 3.512zm9.032 16.882-4.57-4.57a3.834 3.834 0 0 0 2.166-2.166l4.566 4.574-2.162 2.162zm-4.432-11.635a3.778 3.778 0 0 0-3.066 0v-4.925h3.066v4.925zM22.7 23a2.3 2.3 0 1 1 4.6 0 2.3 2.3 0 0 1-4.6 0zm19.647 19.516-10.299-10.3 2.168-2.168 2.711 2.71c7.59 7.59 6.232 8.949 5.42 9.758zM21.167 2.3a.767.767 0 0 1 .278-.584.755.755 0 0 1 1.035.052.74.74 0 0 1 .22.532v6.133a.767.767 0 1 0 1.533 0V2.3a.781.781 0 0 1 .713-.767h.126a.775.775 0 0 1 .695.767v6.133a.767.767 0 1 0 1.533 0V2.3a.767.767 0 1 1 1.533 0v8.433a2.295 2.295 0 0 1-1.74 2.229c-.183.05-.371.074-.56.071h-3.066a2.08 2.08 0 0 1-.578-.076 2.29 2.29 0 0 1-1.722-2.224V2.3z" fill="#B79C10"/><path d="M18.03 5.96a.767.767 0 0 0-1.016-.378c-.526.24-1.033.511-1.533.796-.022.01-.046.01-.067.023-.022.012-.04.038-.063.054a19.166 19.166 0 0 0-6.879 6.885.7.7 0 0 0-.07.077.655.655 0 0 0-.031.09 19.063 19.063 0 0 0 .015 19.033c.008.013.007.03.016.043.008.014.027.035.04.053a19.294 19.294 0 0 0 6.94 6.932c.012.009.02.023.035.031.021.01.044.02.066.028a19.122 19.122 0 0 0 18.527.287.767.767 0 1 0-.723-1.351 17.602 17.602 0 0 1-7.52 2.047V39.1a.767.767 0 1 0-1.534 0v1.514a17.506 17.506 0 0 1-7.374-1.98l.755-1.307a.767.767 0 1 0-1.328-.767l-.754 1.303a17.767 17.767 0 0 1-5.397-5.397l1.303-.754a.767.767 0 1 0-.766-1.328l-1.304.756a17.504 17.504 0 0 1-1.982-7.373H8.9a.767.767 0 0 0 0-1.534H7.395a17.574 17.574 0 0 1 1.98-7.369l1.298.75a.767.767 0 1 0 .767-1.328l-1.303-.753a17.656 17.656 0 0 1 5.395-5.399l.754 1.304a.767.767 0 1 0 1.328-.767l-.75-1.303c.26-.136.52-.274.788-.397a.767.767 0 0 0 .378-1.011zM40.858 32.338a.766.766 0 0 0 1.04-.31 19.058 19.058 0 0 0-.269-18.522.658.658 0 0 0-.03-.09.695.695 0 0 0-.07-.076 19.172 19.172 0 0 0-6.884-6.885c-.023-.016-.037-.04-.062-.054a.69.69 0 0 0-.067-.022 18.213 18.213 0 0 0-1.533-.797.767.767 0 0 0-.635 1.395c.269.123.528.261.789.397l-.75 1.303a.766.766 0 1 0 1.327.767l.754-1.304a17.655 17.655 0 0 1 5.395 5.4l-1.303.752a.767.767 0 1 0 .767 1.328l1.298-.75a17.574 17.574 0 0 1 1.98 7.363H41.1a.767.767 0 1 0 0 1.534h1.51a17.473 17.473 0 0 1-2.062 7.532.767.767 0 0 0 .31 1.039z" fill="#B79C10"/></g><defs><clipPath id="a"><path fill="#fff" d="M0 0h48v48H0z"/></clipPath></defs></svg>