<svg width="20" height="18" fill="none" xmlns="http://www.w3.org/2000/svg"><path d="M20 2.13a7.58 7.58 0 0 1-2.356.716c.848-.563 1.496-1.454 1.804-2.514a7.802 7.802 0 0 1-2.608 1.104C16.092.551 15.027 0 13.846 0 11.58 0 9.743 2.036 9.743 4.545c0 .356.036.703.106 1.035-3.409-.19-6.432-2-8.456-4.75A4.89 4.89 0 0 0 .84 3.117c0 1.577.724 2.968 1.824 3.783a3.804 3.804 0 0 1-1.858-.57v.056c0 2.202 1.415 4.04 3.29 4.457-.343.103-.706.16-1.08.16-.266 0-.522-.03-.773-.085.522 1.807 2.037 3.121 3.832 3.157C4.67 15.293 2.9 16.017.979 16.017A7.89 7.89 0 0 1 0 15.955C1.816 17.247 3.972 18 6.289 18c7.547 0 11.673-6.926 11.673-12.933l-.014-.589A8.734 8.734 0 0 0 20 2.13z" fill="#D4D7E6"/></svg>