<svg width="109" height="75" fill="none" xmlns="http://www.w3.org/2000/svg"><path fill-rule="evenodd" clip-rule="evenodd" d="M57.986 0c.17 0 .34 0 .51.17.68.169 1.19.507 1.36 1.354V6.94c0 1.524 0 3.217-.17 4.74v.17c0 .339.17.508.51.508h.17c0 .338 0 .846-.51 1.016-.34.169-.85.169-1.19.169-.34-.17-.51-.339-.51-.677 0-.051-.015-.118-.032-.191-.04-.168-.086-.368.032-.486V8.465c-.036 0-.118-.008-.23-.018-.416-.039-1.239-.115-1.64.018v4.91c-.51.169-.85.169-1.36.169-.17 0-.34-.17-.34-.339V12.19c0-2.201 0-4.571.17-6.772V2.2c0-1.016.51-1.693 1.53-2.032.17 0 .34 0 .51-.169h1.19zm-1.53 6.941h1.87v-4.57c0-.509-.17-.678-.68-.847h-.51c-.34 0-.68.338-.68.677v4.74z" fill="#313030"/><path d="M0 17.269c0 .084.043.127.085.169.043.042.085.085.085.17l3.06 3.047 8.995 8.7.019.019 9.012 8.719c.17 0 .17 0 .34.169L.34 59.424l1.19 1.185 20.916-21.331c2.04 1.862 3.911 3.724 5.782 5.587l.85-.847-5.782-5.756c1.043-1.038 2.04-2.076 3.017-3.09a183.49 183.49 0 0 1 2.765-2.836l-.85-.846c-.618.614-1.235 1.247-1.858 1.887-1.266 1.297-2.557 2.621-3.924 3.87L1.19 16.083 0 17.268z" fill="#313030"/><path fill-rule="evenodd" clip-rule="evenodd" d="M109 43.002v-.169h-1.02V41.14c-.17-1.016-.51-2.032-1.021-2.878-.34-.508-.68-1.016-1.19-1.524 0 0-.17 0-.17-.17.105 0 .145-.064.201-.153a.928.928 0 0 1 .139-.185c.85-1.015 1.531-2.2 1.871-3.555.17-.17.17-.508.17-.677v-1.693c-.17-1.016-.51-2.032-1.191-2.709-1.19-1.185-2.89-2.032-4.761-1.354h-.17c0-.085.043-.127.085-.17.043-.042.085-.084.085-.169.107-.214.231-.444.362-.686l.001-.001v-.001c.283-.525.595-1.104.827-1.682.17-.339.341-.847.341-1.355.17-1.354-.341-2.878-1.701-3.555-.51-.339-1.36-.508-2.04-.339a4.203 4.203 0 0 0-2.721 2.37c-.17.17-.17.508-.17.678 0 .508.34 1.016.85 1.185.51.17 1.02 0 1.36-.339.17 0 .34-.169.34-.338.51-.847 0-1.693-1.02-1.693h-.34c0-.17 0-.17.17-.339.68-.677 1.53-1.016 2.551-1.016 1.02.17 1.7.847 1.87 1.693.114.226.076.452.038.678-.019.112-.038.225-.038.338-.17 1.016-.51 1.862-1.02 2.709-.255.508-.553 1.058-.85 1.608l-.001.001c-.297.55-.595 1.1-.85 1.608-.084.169-.17.38-.254.592-.086.212-.17.424-.256.593-.17.677-.34 1.354-.34 2.031 0 1.185.85 2.37 1.871 2.71.028.008.055.018.082.027l.108.037c.411.143.726.252 1.17.105 1.361-.34 2.551-1.524 2.721-2.879 0-.677-.17-1.185-.51-1.523-.68-.508-1.531-.508-2.041.169-.34.508-.34 1.016 0 1.524.51.508 1.021.677 1.531.338.085 0 .127-.042.17-.084.042-.043.085-.085.17-.085-.17.17-.17.339-.17.508-.34.846-.851 1.354-1.871 1.524-1.36.169-2.21-.847-2.04-2.032.085-.254.17-.466.255-.677.085-.212.17-.424.255-.677.107-.215.232-.446.363-.69.283-.524.595-1.102.827-1.68 0 0 0-.17.17-.17.107-.035.206-.07.3-.104.36-.129.657-.235 1.061-.235 1.02 0 1.87.339 2.55 1.016.51.508.85 1.016 1.021 1.693.319.796.188 1.443.03 2.221l-.03.15c-.511 1.523-1.361 2.708-2.381 3.724h-.17c-.085 0-.128-.042-.17-.085-.043-.042-.085-.084-.17-.084-1.021-.677-2.211-1.185-3.571-1.355-2.21-.338-3.911.508-5.102 2.201-.065.065-.121.119-.17.165-.133.126-.204.193-.212.266-.008.082.063.173.212.364.049.062.105.135.17.221 1.36 1.862 3.401 2.54 5.612 2.201 1.19-.17 2.21-.677 3.231-1.354.17 0 .34-.17.34-.17h.17c1.02 1.016 1.7 2.032 2.211 3.386.17.847.34 1.693.17 2.54-.341 1.862-2.721 3.555-4.932 2.54-.065-.065-.13-.105-.185-.14-.09-.055-.155-.095-.155-.2-.386-.512-.675-1.122-.94-1.682a28.53 28.53 0 0 0-.25-.518l-.51-1.524c-.17-1.016.51-2.032 1.7-1.862 1.02 0 1.871.508 2.211 1.523v.34c-.085 0-.128-.043-.17-.086-.043-.042-.085-.084-.17-.084-.121 0-.22-.021-.313-.041-.169-.037-.318-.069-.538.04-.51.17-.85.509-.85 1.017 0 .677.34 1.015.85 1.354.511.17 1.021.17 1.361-.17.68-.507.85-1.015.68-1.692-.34-1.355-1.19-2.201-2.381-2.71-.85-.338-1.7-.168-2.38.34-1.02.677-1.36 1.693-1.19 2.878.17.677.51 1.523.85 2.2.17.254.297.508.425.762.127.254.255.508.425.762.51.847 1.02 1.862 1.53 2.878.285.567.451 1.254.597 1.86v.001l.083.34c.17 1.185-.34 2.201-1.53 2.37-1.02.339-2.04-.169-2.72-1.015 0 0-.17-.17-.17-.339h.34c.68 0 1.36-.339 1.36-1.185 0-.677-.34-1.185-1.02-1.354-.34 0-.51 0-.85.169-.341.338-.681.846-.511 1.354 0 .339 0 .508.17.677a5.159 5.159 0 0 0 2.211 2.032c.51.339 1.19.339 1.87.17 1.361-.34 2.381-1.694 2.551-3.048.17-.847 0-1.524-.34-2.201-.17-.423-.383-.846-.595-1.27a16.877 16.877 0 0 1-.596-1.27c0-.084-.042-.127-.085-.169-.042-.042-.085-.084-.085-.17.17.17.17.17.34.17.681.339 1.361.339 2.041.17 1.701-.34 3.401-1.863 3.571-4.064zm-11.053-6.264c1.53 1.185 4.081 1.016 5.612 0-1.701-1.185-4.082-1.185-5.612 0z" fill="#313030"/><path d="M56.724 74.383c.098.255.188.486.582.617h.85c0-.17.17-.17.17-.17.34-.169.51-.338.51-.846h-.17a4.537 4.537 0 0 0-.17-.079c-.227-.102-.34-.152-.34-.429v-1.523c.17-2.201.17-4.402.17-6.603v-.677a1.53 1.53 0 0 0-1.02-1.016c-.68-.17-1.36 0-1.87.339l-.17.169c-.51-.677-1.021-.847-1.531-.508a.93.93 0 0 0-.51.846h.17c.062.031.119.057.17.08.227.101.34.152.34.428v.17c-.17 2.37-.17 4.57-.17 6.94v2.371c0 .339 0 .339.34.339h1.02v-2.032c.17-2.37.17-4.91.17-7.28 0-.338 0-.508.34-.677.17-.17.17-.17.34-.17.51-.169.85.17.85.678v1.693c-.17 2.2-.17 4.402-.17 6.603v.507c.04.078.07.155.099.23zM32.309 39.785h6.462v8.296h8.672c1.19 0 2.38-.169 3.571-.508.68-.169 1.19-.508 1.7-1.015 1.19-1.016 1.7-2.37 1.53-3.894 0-.678-.17-1.185-.34-1.693-.68-1.355-1.7-2.201-3.23-2.71-.17 0-.34 0-.51-.169.17 0 .17 0 .17-.169 1.87-.508 2.89-1.862 3.06-3.724.17-1.693-.51-3.217-2.04-4.233-.51-.338-1.02-.508-1.53-.677l-.362-.074c-.69-.141-1.293-.265-2.019-.265h-8.672v7.788h-6.462V25.734c0-1.186.85-2.032 2.04-2.201h24.147c.85.169 1.53 1.015 1.53 2.031v23.872c-.17.846-1.02 1.523-1.87 1.523H34.009c-1.02-.169-1.53-1.015-1.7-2.031v-9.142z" fill="#313030"/><path fill-rule="evenodd" clip-rule="evenodd" d="M77.371 30.643c-1.87-1.185-3.91-1.693-5.951-1.693-1.36 0-2.551.17-3.741.847-4.762 1.693-7.312 6.433-6.122 11.174.68 3.047 2.55 5.079 5.271 6.433 2.211 1.016 4.422 1.185 6.802.677 2.04-.508 3.741-1.354 5.102-2.709 2.21-2.2 3.06-4.91 2.72-7.957-.34-2.878-1.7-5.079-4.08-6.772zm-5.951 1.185c3.74 0 6.802 3.048 6.802 6.772 0 3.556-2.721 6.773-6.972 6.773-3.741 0-6.802-3.048-6.802-6.773 0-3.894 3.23-6.772 6.972-6.772z" fill="#313030"/><path d="M67.169 14.052c-.51 0-1.02 0-1.36-.17-.17 0-.34-.169-.17-.338 0-.339 0-.677.17-.847.17-.93.297-1.82.424-2.708.128-.889.255-1.778.425-2.71l.51-4.062v-.508c0-.339-.17-.508-.51-.677-.51-.17-.85 0-1.19.338 0 0-.17.17-.17.339-.17.846-.34 1.862-.34 2.709-.093.833-.237 1.667-.376 2.472-.115.668-.227 1.316-.304 1.93-.17 1.015-.34 2.2-.34 3.216v.508c-.51 0-1.02 0-1.36-.17-.17 0-.17-.169-.17-.338 0-.338 0-.508.17-.846.17-1.1.34-2.244.51-3.386.17-1.143.34-2.286.51-3.386l.51-3.048V2.2c0-.507 0-.507-.51-.676h-.17c0-.508.17-.847.68-.847.227-.113.453-.075.68-.037.113.018.227.037.34.037.17 0 .34.17.51.339 0 .084.043.127.085.17.043.041.085.084.085.168.51-.338 1.19-.508 1.7-.338.68.17 1.191.338 1.531 1.016.085 0 .128-.043.17-.085.043-.042.085-.085.17-.085.68-.338 1.53-.508 2.21-.169.681.339 1.021.846 1.021 1.524 0 .508 0 1.015-.17 1.523a42.345 42.345 0 0 1-.34 2.286 42.246 42.246 0 0 0-.34 2.286c-.085.676-.17 1.31-.255 1.944v.002c-.085.635-.17 1.27-.255 1.947v.339c0 .17.17.339.34.508h.17c0 .338-.17.846-.68.846-.34.17-.68.17-1.19 0a.93.93 0 0 1-.51-.846v-.847c.17-1.27.34-2.497.51-3.724v-.004c.17-1.226.34-2.453.51-3.72a8.44 8.44 0 0 0 .17-1.016c.042-.34.085-.678.17-1.016a.93.93 0 0 0-.51-.847c-.34-.17-.68 0-1.02.17l-.34.338-.511 3.047c-.093.834-.237 1.667-.376 2.473a43.285 43.285 0 0 0-.304 1.93c-.17 1.015-.34 2.03-.34 3.216h-.17zM52.715 13.713c.34-.169.68-.677.51-1.185-.17-.17-.17-.17-.34 0l-.17-.08c-.227-.1-.34-.151-.34-.428v-.169c-.086-.847-.17-1.65-.256-2.455a464.18 464.18 0 0 1-.255-2.455l-.51-4.063c0-.339 0-.677-.17-1.016-.17-.508-.68-.846-1.19-1.016-.68-.169-1.36 0-2.04.508l-.34.339-.17-.17c-.17-.169-.341-.338-.511-.338-.34 0-.68 0-1.02.17-.34.169-.51.507-.34 1.015h.17c.34 0 .51.17.51.508v.17c0 .253.042.55.085.846.042.296.085.592.085.846 0 1.185.17 2.37.34 3.555.085.677.17 1.397.255 2.117.085.72.17 1.439.255 2.116 0 .254.043.466.085.677.043.212.085.424.085.678.089.176.131.26.2.301.063.037.148.037.31.037.17 0 .298-.042.425-.084a1.26 1.26 0 0 1 .425-.085c.086 0 .17-.042.256-.085a.605.605 0 0 1 .255-.084v-.17c-.085-.338-.128-.72-.17-1.1-.043-.381-.085-.762-.17-1.1 0-1.186-.17-2.37-.34-3.556a18.567 18.567 0 0 1-.17-1.524 18.558 18.558 0 0 0-.17-1.523c0-.254-.043-.55-.086-.847a6.32 6.32 0 0 1-.085-.846v-.339c.17-.17.34-.339.68-.508.51-.17 1.02 0 1.02.677.086.508.128 1.058.17 1.609.043.55.086 1.1.17 1.608.08.868.196 1.772.315 2.696.136 1.059.275 2.144.366 3.23 0 .338 0 .677.17 1.015.17.508.51.678 1.02.678.2 0 .34-.058.457-.107.083-.034.153-.063.224-.063zM42.172 45.203v-5.418h5.101c.68 0 1.36 0 1.87.34.34.168.68.338.85.507 1.361.846 1.191 2.878.17 3.725-.51.338-1.02.677-1.7.677-.17 0-.382.042-.595.084-.212.043-.425.085-.595.085h-5.101zM18.195 10.497c-.34.338-.51.846-.17 1.354.68-.17.85-.17 1.36.17 0 0 .17.169.17.338 1.53 3.047 3.401 5.756 5.612 8.296l.51.508c.17.169.51.169.85 0 .17-.17.51-.34.85-.508.17-.17.34-.339.34-.678v-.508c0-.507-.17-1.015-.34-1.523-.68-2.37-1.7-4.74-2.72-7.11-.34-.847-.68-1.694-1.19-2.54-.17-.339-.34-.339-.68-.17-.17.085-.298.17-.426.254-.127.085-.255.17-.425.254-.085 0-.128.043-.17.085-.043.042-.085.085-.17.085.68.846 1.19 1.693 1.53 2.54 1.19 2.539 2.21 5.247 3.061 7.956v.339c-.17 0-.34-.17-.34-.17-.68-.846-1.36-1.693-2.04-2.708-1.36-1.863-2.551-3.725-3.572-5.756-.084-.085-.17-.212-.255-.339a2.351 2.351 0 0 0-.255-.339c-.34-.338-.68-.338-1.02-.169-.17 0-.34.17-.51.339zM85.874 9.48c.17-.38.34-.761.51-1.184 0-.17 0-.17.17-.339.14-.278.05-.442-.082-.68-.028-.052-.058-.106-.088-.166-.17-.17-.34-.339-.68-.339-.51 0-.68 0-.85.508-.34.677-.68 1.524-.85 2.2-.17.34-.17.847.17 1.186.254.338.467.635.68.93.212.297.425.594.68.932.51.677.51 1.355.17 2.032l-1.02 2.54c-.34 1.015-1.19 1.354-2.381 1.354-.68-.17-1.36-.339-1.87-.847-.34-.338-.681-.677-.681-1.015a1.076 1.076 0 0 1 0-1.016c.17-.424.34-.805.51-1.185.17-.381.34-.762.51-1.185.17-.34.34-.34.51-.34.51 0 .85.17 1.19.34-.17.423-.34.804-.51 1.185-.17.38-.34.761-.51 1.185-.17.338-.17.677 0 1.015.34.34.68.508 1.19.34.17 0 .511-.17.511-.509.34-.677.68-1.524.85-2.2.17-.509.17-.847-.17-1.186-.192-.255-.36-.51-.522-.756-.268-.407-.52-.79-.838-1.106-.34-.508-.51-1.185-.17-1.693.218-.651.506-1.303.774-1.91.15-.339.294-.664.416-.968.34-.847 1.19-1.185 2.04-1.185.85 0 1.531.338 2.041.846.17.17.34.339.51.677.34.508.34.847.17 1.355-.17.423-.34.804-.51 1.185-.17.38-.34.762-.51 1.185-.17.17-.34.338-.51.338-.51 0-1.02 0-1.36-.338.17-.423.34-.804.51-1.185zM36.05 10.835l-.51-1.016c-.17.085-.383.17-.595.254-.213.085-.425.17-.596.254-.51.17-.85 0-1.02-.508V9.65l-1.02-3.047c-.17-.17-.17-.17-.17-.339 0-.338 0-.677.34-.846 0 0 .17-.17.34-.17.51-.169.85 0 1.02.508l.51 1.524c.17 0 .17.17.17.339.51 0 .85-.17 1.19-.508.17-.17.17-.339.17-.508l-.51-1.524c-.17-.677-.68-1.016-1.36-1.185-1.02-.17-1.87.17-2.72.846-.51.339-.68.678-.68 1.186 0 .338 0 .677.17 1.015l1.02 3.048c.17.508.34 1.016 1.02 1.354-.34.508-.34 1.016-.17 1.524.17.423.34.888.51 1.354.17.466.34.931.51 1.355 0 .084.043.127.085.169.043.042.085.085.085.17.34.677 1.02 1.015 1.7 1.015.851 0 1.531-.17 2.211-.677.34-.17.51-.339.68-.677l.066-.19c.143-.409.253-.722.105-1.165 0-.338-.17-.846-.34-1.185-.17-.17-.34-.338-.51-.338-.51 0-1.02.169-1.361.338.17.17.17.17.17.339 0 .508.17.846.34 1.185.17.338 0 .677-.34.846-.085 0-.17.043-.255.085-.085.042-.17.085-.255.085-.51.169-.85 0-1.02-.508-.17-.423-.298-.847-.425-1.27a14.803 14.803 0 0 0-.426-1.27c-.17-.508 0-.846.51-1.016h.17c.17-.084.34-.127.51-.169.17-.042.34-.085.51-.17.17 0 .17-.168.17-.338zM76.861 12.867c.51 0 1.02.17 1.36.508.17.169.17.338.17.508-.084.254-.127.465-.17.677a5.241 5.241 0 0 1-.17.677c-.17.677-.85 1.016-1.53 1.185-.85.17-1.7-.17-2.38-.677a2.2 2.2 0 0 1-.85-2.201c.17-.508.297-.974.424-1.44.128-.465.255-.93.425-1.438.17-.508.34-.677.85-1.185 0 0 0-.17-.17-.17a1.44 1.44 0 0 1 0-1.185l.002-.002c.34-1.185.68-2.369 1.019-3.384.34-1.015 1.02-1.523 2.04-1.523.68 0 1.36.169 2.041.677.51.339.85.677.85 1.354v.678l-.51 1.523c-.031.062-.056.119-.08.17-.101.225-.152.338-.43.338-.34 0-.85 0-1.19-.338v-.17c.17-.508.34-1.016.51-1.693.17-.508 0-.677-.51-.846h-.34c-.51-.17-.85.169-1.02.508a9.672 9.672 0 0 1-.34 1.185c-.128.38-.256.762-.34 1.185a2.38 2.38 0 0 0-.17.508c-.043.169-.086.338-.17.508-.171.508-.001.846.51 1.015.084 0 .212.043.34.085.127.042.254.085.34.085.17 0 .51 0 .68.169 0 .339 0 .847-.17 1.185 0 .17-.17.17-.34.17-.17-.085-.34-.127-.51-.17-.17-.042-.34-.085-.51-.17h-.34c-.511 0-.681.17-.851.509l-.51 1.523c-.085.17-.128.339-.17.508-.043.17-.085.339-.17.508-.17.508 0 .847.51 1.016.085 0 .17.042.255.085.085.042.17.084.255.084.34 0 .68-.169.68-.508.085-.169.128-.338.17-.508a2.38 2.38 0 0 1 .17-.507c.028-.137.05-.256.07-.36.105-.536.128-.656.27-.656zM89.105 13.036c-.34.508-.51 1.016-.34 1.693-.51.17-.85.339-.68.847-.51.846-1.02 1.693-1.531 2.708-.34.678-.34 1.355.17 2.032 0 .17.17.339.34.508.34.338.85.508 1.36.677.34.17.68.17 1.02.17.51 0 .851-.17 1.191-.678.085-.17.213-.38.34-.592.128-.212.255-.424.34-.593.17-.17.17-.338 0-.508-.34-.508-.68-.677-1.19-.846 0 .084-.043.127-.085.169-.043.042-.085.085-.085.17l-.51 1.015c0 .17-.17.339-.34.339-.34.169-.85 0-1.19-.339a1.075 1.075 0 0 1 0-1.016c.17-.677.51-1.185.85-1.693.085-.084.127-.211.17-.338.042-.127.085-.254.17-.339.17-.338.68-.508 1.02-.338.085 0 .127.042.17.084.043.043.085.085.17.085.17.084.298.17.425.254.128.084.255.17.425.254.17.169.17.169.34 0 .34-.339.51-.847.51-1.185-.085-.085-.212-.127-.34-.17-.127-.042-.255-.084-.34-.169a3.346 3.346 0 0 0-.325-.139c-.145-.055-.25-.095-.355-.2-.51-.169-.51-.508-.34-1.015.255-.508.553-1.016.85-1.524a27.36 27.36 0 0 0 .85-1.524c.34-.338.68-.508 1.02-.338.17 0 .34 0 .51.169.031.06.061.115.09.166.13.238.22.402.08.68 0 .085-.042.127-.084.17-.043.042-.085.084-.085.169-.17.254-.298.508-.425.762-.128.254-.255.508-.425.762.34.338.68.508 1.19.508.17 0 .34-.17.51-.339a6.85 6.85 0 0 0 .425-.762c.128-.254.255-.508.425-.762.17-.508.17-1.015 0-1.523a2.344 2.344 0 0 1-.255-.339 2.352 2.352 0 0 0-.255-.339c-.51-.338-1.02-.677-1.7-.846-.51-.17-.85-.17-1.19 0-.51.17-.85.508-1.19 1.016-.681 1.015-1.191 2.031-1.701 3.047zM42.172 36.907v-5.079h4.931c.51 0 1.19 0 1.7.17.68.169 1.36.677 1.53 1.523.34 1.016.17 2.37-1.36 3.048-.51.17-1.02.338-1.53.338h-5.271z" fill="#313030"/><path fill-rule="evenodd" clip-rule="evenodd" d="M38.6 60.61c-.34 0-.68.169-.85.677.433.143.499.287.612.533.021.045.043.093.069.144-.17.17-.17.17-.17.338-.425 1.44-.893 2.878-1.36 4.316l-.001.002a168.446 168.446 0 0 0-1.36 4.317c-.17 0-.17.169-.17.338.17.17.17.17.34.17.34.084.637.169.935.254.298.084.595.169.935.254.085 0 .213.042.34.084.128.042.255.085.34.085 1.02.17 1.701-.339 2.041-1.355.085-.338.17-.634.255-.93.085-.297.17-.593.255-.932.17-.508.17-1.016-.17-1.524.51-.169.68-.677.85-1.185.086-.338.17-.635.255-.93.085-.297.17-.593.256-.932.074-.223.116-.413.154-.585.048-.22.09-.41.186-.6.17-.508.17-1.016-.34-1.355-.51-.507-1.02-.677-1.7-.507a.605.605 0 0 0-.256.084c-.085.043-.17.085-.255.085-.17-.677-.68-.847-1.19-.847zm.17 5.586c-.17-.042-.34-.084-.51-.169.17 0 .17-.17 0-.339l1.02-3.047c0-.17.17-.339.34-.339.121 0 .22-.02.314-.04.169-.037.318-.069.537.04.34.17.34.339.34.678v.169c-.17.423-.297.889-.425 1.354-.127.466-.255.931-.425 1.355 0 .084-.042.127-.085.169-.042.042-.085.085-.085.17-.17.169-.34.169-.51.169a2.407 2.407 0 0 0-.51-.17zm-1.437 4.556a2.369 2.369 0 0 1-.433-.154c.34-1.185.68-2.2 1.02-3.217.34 0 .68.17 1.02.339.34 0 .51.339.34.677-.097.487-.251.919-.397 1.326-.107.3-.21.588-.282.875 0 .17-.17.339-.51.339h-.34c-.096-.095-.245-.137-.418-.185z" fill="#313030"/><path d="M31.289 68.397a1.697 1.697 0 0 1-.039.131c-.13-.13-.117-.13.039-.13z" fill="#313030"/><path fill-rule="evenodd" clip-rule="evenodd" d="M31.245 68.544c-.204.578-.688.856-1.317.7 0 0-.17 0-.17-.17-.51-.338-.68-.677-.51-1.185.085-.423.213-.846.34-1.27.128-.423.255-.846.34-1.27 0-.168 0-.168.17-.338-.105-.104-.21-.144-.355-.2-.09-.034-.195-.074-.325-.138-.255.592-.51 1.142-.765 1.692s-.51 1.101-.765 1.694a2.535 2.535 0 0 0-.34-.132c-.227-.075-.454-.15-.68-.376-.17 0-.17-.17-.17-.339 0-.084.042-.127.084-.17.043-.041.085-.084.085-.168a177.85 177.85 0 0 0 1.589-3.273c.761-1.598 1.512-3.171 2.322-4.684v-.17c.17-.508.17-.677-.17-1.016.17-.338.51-.677.85-.508.68.17 1.02.34 1.02 1.016h.511c.51 0 1.02.17 1.53.508.51.339.68.847.51 1.524 0 .085-.042.17-.084.254-.043.084-.086.17-.086.254a33.683 33.683 0 0 1-.85 1.777 33.803 33.803 0 0 0-.85 1.778c-.17.339-.34.677-.68.847-.096.095-.245.136-.417.185-.135.037-.284.079-.433.153 0 .17 0 .17-.17.339-.085.254-.17.55-.256.846-.084.297-.17.593-.255.847v.338c0 .324 0 .493.297.655zm-1.317-4.887c.085.085.213.127.34.17.128.041.255.084.34.169.51.169.85.169 1.19-.34.256-.507.51-1.057.766-1.607.255-.55.51-1.1.765-1.609 0 0 0-.17.17-.17.17-.338 0-.507-.17-.676-.34-.17-.51-.17-.85-.17-.17 0-.34.17-.51.339-.34.593-.638 1.227-.936 1.862v.001c-.297.635-.595 1.27-.935 1.862l-.17.169z" fill="#313030"/><path d="m31.245 68.544.044.023-.039-.039-.005.016z" fill="#313030"/><path fill-rule="evenodd" clip-rule="evenodd" d="M48.293 74.492c.51 0 .85-.338.85-.846-.51-.17-.51-.339-.51-1.016v-.508c.34-1.524.68-3.217.85-4.74.17-.847.34-1.863.51-2.879 0-.846-.34-1.354-1.02-1.693-.51-.169-1.02-.338-1.53-.338-1.02 0-1.7.508-1.87 1.523-.17 1.186-.34 2.201-.51 3.217a39.21 39.21 0 0 0-.426 2.37 39.214 39.214 0 0 1-.425 2.37c0 .17-.042.382-.085.593a3.308 3.308 0 0 0-.085.593c0 .338 0 .508.34.508h1.02c.085-.677.213-1.397.34-2.117.128-.72.256-1.439.34-2.116.256.085.51.127.766.17.255.042.51.084.765.169-.085.423-.127.804-.17 1.185-.042.38-.085.762-.17 1.185 0 .254-.043.466-.085.677-.043.212-.085.423-.085.677 0 .678.34 1.016.85 1.016h.34zm-.34-6.095v.339c-.285-.071-.54-.112-.765-.149-.313-.05-.568-.091-.765-.19 0-.254.042-.508.085-.762.042-.253.085-.507.085-.761 0-.847.17-1.693.34-2.54 0-.508.17-.677.51-.677.51 0 .85 0 1.02.339.17.169.17.338.17.507-.34 1.355-.51 2.54-.68 3.894z" fill="#313030"/><path d="M23.126 64.673c-.34.338-.51.508-1.02.508-.51-.17-.85-.508-.85-1.016-.85.17-1.53-.339-2.04-.847-.34-.338-.34-.846-.17-1.185.084-.084.127-.211.17-.338.042-.127.084-.254.17-.339 1.53-2.2 3.06-4.402 4.42-6.603 0-.084.043-.127.085-.169.043-.042.086-.085.086-.17.17-.338.17-.507-.17-.677l-.17-.169c.17-.338.51-.508 1.02-.508.17 0 .51.17.68.339.34.17.34.508.17.846-.105.105-.145.21-.2.354-.035.09-.075.194-.14.324-.765 1.1-1.53 2.243-2.296 3.386-.765 1.142-1.53 2.285-2.295 3.386 0 .084-.043.127-.085.169-.043.042-.085.085-.085.17-.17.338-.17.507.17.676.34.339.68.339 1.02.17.17 0 .17-.17.17-.17 1.53-2.37 3.06-4.57 4.761-6.94.17-.34.34-.678.68-1.017.34.17.68.339 1.02.678.086.084.128.127.128.169 0 .042-.042.084-.127.17 0 0-.17.168-.17.338l-.001.001c-1.7 2.54-3.4 5.078-5.1 7.448 0 .085-.043.127-.086.17-.042.042-.085.084-.085.169-.17.169 0 .338.34.677z" fill="#313030"/><path fill-rule="evenodd" clip-rule="evenodd" d="M92.42 63.657c.043.042.085.085.085.17.68-.509 1.19-.847 2.041-1.186l.51-.508c.68-.846.68-1.524.17-2.37-1.36-2.2-2.89-4.232-4.42-6.264l-.511-.508c-.34-.339-.85-.339-1.36-.17-.68.17-1.19.509-1.36 1.186-.17.169-.17.169-.17.338-.341-.169-.511-.169-.851 0-.17 0-.34.17-.51.339-.34.339-.34.677 0 1.016h.17c.34-.17.51-.17.68.169 0 .085.042.127.085.17.043.042.085.084.085.169.85 1.184 1.742 2.41 2.634 3.638l.003.004a693.515 693.515 0 0 1 2.634 3.637c0 .085.043.127.086.17zm.766-1.778c-.128.085-.255.17-.34.254 0-.084 0-.127-.022-.148-.02-.021-.063-.021-.148-.021-.766-1.1-1.53-2.159-2.296-3.217-.765-1.058-1.53-2.116-2.296-3.217 0-.129-.025-.233-.046-.323-.034-.145-.059-.25.046-.354 0-.338.17-.508.51-.677.34 0 .51 0 .68.17l.17.169.882 1.2v.001c1.118 1.52 2.297 3.122 3.37 4.724.34.508.34.847-.17 1.185-.085.085-.213.17-.34.254zM85.023 68.059c-.51 0-1.02-.17-1.19-.678-.085-.084-.127-.169-.17-.254a.886.886 0 0 0-.17-.253c-.595-1.1-1.19-2.244-1.785-3.386-.596-1.143-1.19-2.286-1.786-3.386 0 0 0-.17-.17-.17-.34-.677-.34-1.524.34-2.031.51-.508 1.19-.847 1.87-1.016.68 0 1.02.17 1.36.677.171.17.17.339.17.339.596 1.1 1.191 2.243 1.786 3.386.596 1.142 1.19 2.285 1.786 3.386.51 1.015.17 1.862-.51 2.37-.17.677-1.02 1.016-1.53 1.016zm.34-1.355c.68 0 1.02-.677.68-1.185a38.113 38.113 0 0 1-1.87-3.725l-1.53-3.047c-.17-.339-.51-.508-.85-.339-.17 0-.34.17-.51.34-.17.168-.17.507-.17.676 0 0 0 .17.17.17 1.19 2.2 2.38 4.401 3.57 6.772 0 .084.043.127.085.169.043.042.085.085.085.17-.17 0 0 .169.34 0zM75.5 70.429c.17.677.681 1.016 1.701 1.016.51 0 1.19-.17 1.87-.508.511-.339.681-.847.681-1.524a.6.6 0 0 0-.085-.254c-.043-.085-.085-.17-.085-.254-.425-1.185-.85-2.412-1.275-3.64-.425-1.227-.85-2.455-1.276-3.64 0-.084-.042-.169-.085-.254a.6.6 0 0 1-.085-.254c-.34-.508-.68-.846-1.19-.846-1.02-.17-1.87.17-2.55.846-.34.339-.511.678-.511 1.016 0 .339 0 .508.17.847.68 1.693 1.36 3.555 2.04 5.417.17.677.34 1.355.68 2.032zm-1.36-8.804c.34-.169.51-.169.68-.169.34 0 .51 0 .51.339.17.508.383 1.058.596 1.608.212.55.425 1.1.595 1.608.255.677.468 1.312.68 1.947.213.635.425 1.27.68 1.947v.17c.34.677 0 1.185-.68 1.185-.34 0-.51-.17-.68-.508a6.011 6.011 0 0 0-.34-.931c-.127-.297-.255-.593-.34-.932-.68-1.691-1.36-3.552-2.04-5.414V62.302c0-.169 0-.507.34-.677z" fill="#313030"/><path d="M41.379 5.134c.721 3.183 1.462 6.45 2.323 9.595-.085 0-.17.043-.255.085a.606.606 0 0 1-.255.084c-.07 0-.14.03-.223.063-.117.049-.258.107-.457.107-.34 0-.51 0-.51-.339-.085-.508-.213-1.058-.34-1.608-.128-.55-.255-1.1-.34-1.609a122.854 122.854 0 0 0-.759-3.431c-.327-1.42-.66-2.862-.942-4.356v-.17c-.17.057-.34.094-.51.132-.34.075-.68.15-1.02.376l-.51-1.016c0-.169 0-.338.34-.338.255-.085.467-.127.68-.17.212-.042.425-.084.68-.169.425-.084.808-.17 1.19-.254.383-.084.766-.169 1.19-.254.34 0 .68-.169 1.02-.338.17.338.341.677.341 1.016 0 .169 0 .338-.34.338-.191.095-.382.137-.603.185-.173.038-.364.08-.587.154-.17 0-.34 0-.51.169l.397 1.748zM66.148 62.641c-.51.17-.85.508-.68 1.185.153 0 .272.034.402.072.16.046.338.097.618.097v.17c.085.592.213 1.185.34 1.777.128.593.256 1.186.34 1.778.17.847.34 1.65.51 2.455.17.804.34 1.608.51 2.455 0 .338 0 .508.171.677.17.17.34.339.68.339.17 0 .51 0 .68-.17.34-.169.51-.508.34-1.016h-.17c-.162 0-.247 0-.31-.036-.069-.04-.111-.125-.2-.302v-.17c0-.507-.17-1.184-.34-1.861a5.249 5.249 0 0 1-.17-.678c-.042-.212-.085-.423-.17-.677h.17c.255-.085.468-.127.68-.17a5.31 5.31 0 0 0 .68-.169c.17 0 .17-.169.17-.338 0-.17-.17-.508-.34-.847-.363.241-.726.31-1.151.392-.172.033-.353.067-.549.116-.17-.677-.298-1.354-.425-2.031-.128-.678-.255-1.355-.425-2.032.17-.17.34-.17.51-.17.34 0 .85 0 1.19-.169.34-.169.34-.17.34-.338 0-.339-.17-.677-.34-1.016-.255.085-.467.127-.68.17-.212.041-.425.084-.68.169-.255.084-.553.126-.85.169-.298.042-.596.084-.85.17zM32.479 18.284c-.17.085-.383.212-.595.339-.213.127-.425.254-.595.339-.17 0-.34 0-.34-.17 0 0 0-.169-.17-.169-1.36-3.217-2.721-6.433-4.252-9.65-.11-.328-.29-.656-.496-1.03-.113-.205-.233-.423-.354-.663 0-.085-.043-.127-.085-.17-.043-.042-.085-.084-.085-.169.17-.084.383-.211.595-.338a9.87 9.87 0 0 1 .595-.339c.17 0 .34 0 .34.17 0 .084.043.126.085.169.043.042.085.084.085.169 1.36 3.217 2.721 6.433 4.252 9.65.085.254.212.508.34.762.127.254.255.508.34.762.34 0 .34.17.34.338zM67.849 23.871h6.972v2.201h-6.972v-2.2z" fill="#313030"/></svg>